<svg width="18" height="18" viewBox="0 0 18 18" fill="none" xmlns="http://www.w3.org/2000/svg">
<path fill-rule="evenodd" clip-rule="evenodd" d="M7.5 7.5V1.125C7.5 0.50368 8.00368 0 8.625 0C9.24632 0 9.75 0.50368 9.75 1.125V7.5H16.125C16.7463 7.5 17.25 8.00368 17.25 8.625C17.25 9.24632 16.7463 9.75 16.125 9.75H9.75V16.125C9.75 16.7463 9.24632 17.25 8.625 17.25C8.00368 17.25 7.5 16.7463 7.5 16.125V9.75H1.125C0.50368 9.75 0 9.24632 0 8.625C0 8.00368 0.50368 7.5 1.125 7.5H7.5Z" fill="#141124"/>
</svg>
