<svg width="72" height="72" viewBox="0 0 72 72" fill="none" xmlns="http://www.w3.org/2000/svg">
<g id="24x24/On Light/Cross">
<path id="Shape" fill-rule="evenodd" clip-rule="evenodd" d="M35.7426 33.0755L47.7582 21.0599C48.6369 20.1812 50.0615 20.1812 50.9402 21.0599C51.8189 21.9386 51.8189 23.3632 50.9402 24.2419L38.9246 36.2575L50.9402 48.2731C51.8189 49.1518 51.8189 50.5764 50.9402 51.4551C50.0615 52.3338 48.6369 52.3338 47.7582 51.4551L35.7426 39.4395L23.727 51.4551C22.8483 52.3338 21.4237 52.3338 20.545 51.4551C19.6663 50.5764 19.6663 49.1518 20.545 48.2731L32.5606 36.2575L20.545 24.2419C19.6663 23.3632 19.6663 21.9386 20.545 21.0599C21.4237 20.1812 22.8483 20.1812 23.727 21.0599L35.7426 33.0755Z" fill="#141124"/>
</g>
</svg>
