<svg width="284" height="189" viewBox="0 0 284 189" fill="none" xmlns="http://www.w3.org/2000/svg">
<g clip-path="url(#clip0_724_5679)">
<path d="M134.967 96.4145H122.501L123.46 86.2038H133.369L134.967 96.4145Z" fill="#A0616A"/>
<path opacity="0.1" d="M134.967 96.4145H122.501L123.46 86.2038H133.369L134.967 96.4145Z" fill="black"/>
<path d="M41.7557 58.1368C47.3939 58.1368 51.9646 53.5743 51.9646 47.9462C51.9646 42.318 47.3939 37.7555 41.7557 37.7555C36.1175 37.7555 31.5469 42.318 31.5469 47.9462C31.5469 53.5743 36.1175 58.1368 41.7557 58.1368Z" fill="#FF6884"/>
<path d="M87.7823 181.016C87.8402 181.503 87.8567 181.957 87.8236 182.403H63.2701C63.0468 181.957 62.8566 181.495 62.6912 181.016C59.6892 172.406 64.6264 158.075 58.366 136.826C53.7183 121.058 45.0431 108.725 40.999 102.979C36.0288 95.9128 30.3969 89.3912 23.8719 78.9731C22.4577 76.7194 21.0022 74.2758 19.4971 71.6094C18.9926 70.7178 13.1788 60.374 13.7081 60.0521C13.9562 59.9035 15.4944 61.992 16.0154 62.6938C20.6135 68.9017 23.2847 71.6177 27.1138 76.0837C29.4376 78.7915 32.1833 82.1348 36.037 87.2944C45.9197 100.511 50.8568 107.115 52.577 112.06C53.0318 113.381 55.4549 120.53 60.02 129.396C62.3521 133.92 63.5182 136.182 64.155 136C65.9578 135.48 63.5264 116.749 55.885 98.0262C54.5783 94.8397 53.6025 92.8006 51.75 88.9454C48.7397 82.6549 31.9765 47.694 19.6542 26.7669C18.1077 24.1335 16.6274 21.7312 15.2629 19.6261C14.9982 19.2299 14.7418 18.8419 14.4938 18.4704C12.7736 15.9113 11.2519 13.8887 9.98661 12.5844C9.31674 11.891 7.61313 9.92623 4.19762 5.98025C2.84133 4.41174 1.84893 3.24777 1.17906 2.39746C1.07982 2.27366 0.988866 2.14981 0.914467 2.04249C0.103974 0.985845 -0.127561 0.473976 0.0626335 0.20159C0.335557 -0.186432 1.38581 0.0364735 2.53535 0.440973C2.65942 0.482241 2.79172 0.531769 2.91578 0.581297C4.16456 1.04359 5.42984 1.64625 5.85162 1.85264C9.72196 3.71007 13.5013 7.0369 16.9995 10.9912C18.2979 12.4523 19.5467 13.9961 20.7541 15.5811C24.641 20.6993 28.0317 26.2716 30.5954 30.8533C33.738 36.4999 35.6235 40.6523 35.6235 40.6523C44.398 59.9943 54.1317 82.1183 54.6445 81.9285C55.2068 81.7221 44.4145 54.1826 41.2719 39.2241C40.2216 34.2132 40.0314 30.6139 41.4125 29.9205C41.4621 29.8957 41.5118 29.8709 41.5696 29.8544C41.7847 29.7801 41.9831 29.7883 42.0907 29.7966C42.0907 29.7966 43.3725 29.6315 44.7205 29.9205C46.3993 30.2837 48.3097 34.9479 50.1704 41.4943C55.0084 58.368 59.6065 87.7071 59.6065 87.7071C64.2046 117.055 71.1844 140.805 72.8384 140.541C73.7564 140.392 72.4415 133.02 73.6654 120.728C74.5255 112.11 75.5013 112.374 78.6274 96.7879C83.5894 72.0634 86.0704 59.7053 86.0704 59.6393C86.0456 59.1192 85.9794 58.0708 86.1366 56.9811C86.302 55.8006 86.7237 54.5623 87.7244 53.8607C89.2461 52.7875 91.694 53.2498 92.6864 53.8607C93.4803 54.3559 93.8855 55.2641 93.9765 56.5683C94.5223 64.7741 82.7128 88.5657 78.6274 120.728C76.593 136.752 75.4766 145.494 78.6274 157.051C81.7452 168.509 87.1786 175.807 87.7823 181.016H87.7823Z" fill="#F2F2F2"/>
<path d="M196.218 181.016C196.16 181.503 196.143 181.957 196.177 182.403H220.73C220.953 181.957 221.144 181.495 221.309 181.016C224.311 172.406 219.374 158.075 225.634 136.826C230.282 121.058 238.957 108.725 243.001 102.979C247.971 95.9128 253.603 89.3912 260.128 78.9731C261.542 76.7194 262.998 74.2758 264.503 71.6094C265.008 70.7178 270.821 60.3741 270.292 60.0521C270.044 59.9035 268.506 61.9921 267.985 62.6938C263.387 68.9017 260.715 71.6177 256.886 76.0837C254.563 78.7915 251.817 82.1348 247.963 87.2944C238.08 100.511 233.143 107.115 231.423 112.06C230.968 113.381 228.545 120.53 223.98 129.396C221.648 133.92 220.482 136.182 219.845 136C218.042 135.48 220.474 116.749 228.115 98.0262C229.422 94.8397 230.398 92.8006 232.25 88.9454C235.26 82.6549 252.024 47.694 264.346 26.767C265.892 24.1335 267.373 21.7312 268.737 19.6261C269.002 19.2299 269.258 18.8419 269.506 18.4704C271.227 15.9113 272.748 13.8887 274.014 12.5845C274.683 11.891 276.387 9.92624 279.803 5.98026C281.159 4.41174 282.151 3.24778 282.821 2.39746C282.92 2.27366 283.011 2.14981 283.086 2.04249C283.896 0.985847 284.128 0.473976 283.938 0.201589C283.665 -0.186433 282.614 0.0364759 281.465 0.440973C281.341 0.48224 281.208 0.531768 281.084 0.581296C279.836 1.04359 278.57 1.64625 278.149 1.85264C274.278 3.71006 270.499 7.0369 267.001 10.9912C265.702 12.4523 264.453 13.9961 263.246 15.5811C259.359 20.6993 255.968 26.2716 253.405 30.8533C250.262 36.4999 248.377 40.6523 248.377 40.6523C239.602 59.9943 229.868 82.1183 229.356 81.9285C228.793 81.7221 239.586 54.1826 242.728 39.2241C243.779 34.2132 243.969 30.6139 242.588 29.9205C242.538 29.8957 242.488 29.8709 242.431 29.8544C242.215 29.7801 242.017 29.7883 241.91 29.7966C241.91 29.7966 240.628 29.6315 239.28 29.9205C237.601 30.2837 235.69 34.9479 233.83 41.4943C228.992 58.368 224.394 87.7071 224.394 87.7071C219.796 117.055 212.816 140.805 211.162 140.541C210.244 140.392 211.559 133.02 210.335 120.728C209.475 112.11 208.499 112.374 205.373 96.7879C200.411 72.0634 197.93 59.7053 197.93 59.6393C197.955 59.1192 198.021 58.0708 197.864 56.9811C197.698 55.8006 197.276 54.5623 196.276 53.8607C194.754 52.7875 192.306 53.2498 191.314 53.8607C190.52 54.3559 190.115 55.264 190.024 56.5683C189.478 64.7741 201.287 88.5657 205.373 120.728C207.407 136.751 208.524 145.494 205.373 157.051C202.255 168.509 196.822 175.807 196.218 181.016L196.218 181.016Z" fill="#F2F2F2"/>
<path d="M228.274 181.969C228.274 182.117 228.154 182.237 228.005 182.237H41.9028V181.701H228.005C228.154 181.701 228.274 181.821 228.274 181.969Z" fill="#E6E6E6"/>
<path d="M117.079 170.608L119.174 179.992L125.734 179.083L123.912 169.443L117.079 170.608Z" fill="#A0616A"/>
<path d="M152.245 170.608L150.15 179.992L143.59 179.083L145.412 169.443L152.245 170.608Z" fill="#A0616A"/>
<path d="M164.651 149.048L152.845 113.151C150.204 105.12 142.694 99.6914 134.227 99.6914H134.227C124.809 99.6914 116.723 106.38 114.973 115.617L108.444 150.081C107.509 155.017 111.194 159.589 116.168 159.794V183.357H117.99V159.803H156.253V183.357H158.076V159.71C162.998 158.982 166.263 153.952 164.651 149.048Z" fill="#CCCCCC"/>
<path d="M140.219 124.609L117.99 125.337C117.99 125.337 109.608 140.251 124.367 142.252C139.126 144.253 152.063 142.07 152.609 135.704C153.156 129.338 148.601 124.427 140.219 124.609Z" fill="#2F2E41"/>
<path d="M122.181 126.246C122.181 126.246 113.799 127.156 113.07 129.52C112.341 131.885 111.977 142.252 111.977 142.252L115.257 172.262L124.549 171.171L122.545 142.434L133.295 140.069L122.181 126.246V126.246Z" fill="#2F2E41"/>
<path d="M120.359 175.718C120.359 175.718 117.601 173.899 116.885 174.718C116.168 175.536 112.342 179.538 112.342 179.538L105.6 183.721C105.6 183.721 99.7693 189.177 107.969 188.996C116.168 188.814 120.359 186.35 120.359 186.35C120.359 186.35 128.194 186.267 128.011 184.085C127.829 181.902 125.185 176.182 125.185 176.182L120.359 175.718Z" fill="#2F2E41"/>
<path d="M147.143 126.246C147.143 126.246 155.524 127.156 156.253 129.52C156.982 131.885 157.347 142.252 157.347 142.252L154.067 172.262L144.774 171.171L146.779 142.434L136.028 140.069L147.143 126.246V126.246Z" fill="#2F2E41"/>
<path d="M148.965 175.718C148.965 175.718 151.723 173.899 152.44 174.718C153.156 175.536 156.982 179.538 156.982 179.538L163.724 183.721C163.724 183.721 169.555 189.177 161.355 188.996C153.156 188.814 148.965 186.35 148.965 186.35C148.965 186.35 141.13 186.267 141.313 184.085C141.495 181.902 144.139 176.182 144.139 176.182L148.965 175.718H148.965Z" fill="#2F2E41"/>
<path d="M133.66 91.1429H123.082L115.075 94.7806L116.897 118.789C116.897 118.789 114.626 126.088 117.401 126.531C120.177 126.974 135.482 129.702 139.673 127.337C143.863 124.973 147.508 125.701 147.508 125.701L142.588 93.8712L133.66 91.1429H133.66Z" fill="#3F3D56"/>
<path d="M128.649 90.1426C134.083 90.1426 138.488 85.7453 138.488 80.321C138.488 74.8966 134.083 70.4993 128.649 70.4993C123.215 70.4993 118.81 74.8966 118.81 80.321C118.81 85.7453 123.215 90.1426 128.649 90.1426Z" fill="#A0616A"/>
<path d="M118.527 81.9286L120.226 84.1405L122.565 80.8666C122.565 80.8666 122.76 83.7767 129.193 82.6855C135.625 81.5942 137.184 81.2304 137.184 81.2304L137.964 84.5043C137.964 84.5043 138.743 82.3217 138.743 80.8666C138.743 79.4116 143.421 75.9558 138.548 73.0457C133.676 70.1356 136.209 67.4074 130.167 67.5892C124.125 67.7711 120.421 67.5892 119.837 69.7718C119.252 71.9544 117.887 74.6826 118.082 77.0471C118.277 79.4116 118.527 81.9286 118.527 81.9286Z" fill="#2F2E41"/>
<path d="M137.141 124.988C134.772 125.773 132.446 125.19 131.946 123.685C131.445 122.18 132.96 120.324 135.329 119.539C136.272 119.212 137.279 119.115 138.266 119.257L148.345 116.055L149.749 120.809L139.664 123.46C138.957 124.163 138.092 124.687 137.141 124.988Z" fill="#A0616A"/>
<path d="M90.9612 114.358C88.6932 113.317 87.3925 111.306 88.0561 109.865C88.7196 108.424 91.0957 108.1 93.3644 109.141C94.2764 109.545 95.0783 110.16 95.703 110.936L105.257 115.466L103.032 119.896L93.8499 114.96C92.8526 114.993 91.8621 114.786 90.9612 114.358H90.9612Z" fill="#A0616A"/>
<path d="M115.042 94.7294C115.042 94.7294 118.833 96.2738 118.716 100.396C118.598 104.518 115.7 110.278 115.7 110.278C115.7 110.278 115.498 123.282 111.936 124.689C108.374 126.097 97.3677 117.076 97.3677 117.076L99.91 112.229L104.661 111.682L115.042 94.7294Z" fill="#3F3D56"/>
<path d="M139.855 94.5987C139.855 94.5987 143.681 93.1436 146.414 96.2356C149.148 99.3276 150.97 105.512 150.97 105.512C150.97 105.512 159.716 115.151 158.076 118.607C156.436 122.063 142.224 122.972 142.224 122.972L140.766 117.698L143.864 114.06L139.855 94.5987Z" fill="#3F3D56"/>
<path d="M149.757 130.52H118.656C116.916 130.52 115.501 129.108 115.501 127.371V109.298C115.501 107.561 116.916 106.148 118.656 106.148H149.757C151.497 106.148 152.912 107.561 152.912 109.298V127.371C152.912 129.108 151.497 130.52 149.757 130.52Z" fill="#9F8772"/>
<path d="M67.7406 123.842C66.9701 123.439 65.756 125.125 65.0991 124.733C64.4446 124.342 65.4223 122.532 65.054 119.996C64.9876 119.539 64.5691 116.657 63.4058 116.405C61.2007 115.925 58.2593 125.311 54.9342 124.878C54.2045 124.783 53.3787 124.204 51.1179 123.832C50.2185 123.683 49.7228 123.672 49.4329 123.968C49.0215 124.388 49.384 125.061 49.6512 126.659C50.0519 129.055 49.5181 129.224 50.006 131.033C50.3682 132.375 50.8527 132.987 50.5341 133.36C50.0833 133.888 48.8221 133.004 48.175 133.551C47.5147 134.109 47.9394 135.781 48.4479 136.915C49.4022 139.044 50.9283 139.897 52.1728 141.016C53.5253 142.232 55.1778 144.33 56.1434 148.144L63.4858 182.317C62.1344 175.209 58.7693 155.517 57.8284 148.008C57.5568 145.841 57.3508 143.599 58.6852 141.844C59.9699 140.154 62.5276 139.117 65.0433 136.589C65.3371 136.294 66.1445 135.462 65.9179 134.825C65.7306 134.299 65.0072 134.386 64.825 133.898C64.5806 133.243 65.6837 132.554 66.6287 131.043C67.2951 129.978 67.5443 129.045 67.7584 128.243C67.823 128.001 68.7664 124.38 67.7407 123.842L67.7406 123.842Z" fill="#F2F2F2"/>
<path d="M37.6314 162.734C37.2107 162.995 37.6896 164.077 37.3072 164.285C36.9262 164.493 36.3181 163.492 34.9651 162.941C34.7212 162.841 33.1836 162.215 32.7237 162.712C31.8518 163.654 35.618 167.803 34.4454 169.307C34.188 169.637 33.6655 169.875 32.83 170.875C32.4976 171.273 32.3487 171.512 32.4107 171.74C32.4987 172.063 32.9343 172.079 33.797 172.409C35.0908 172.904 35.0198 173.215 36.0496 173.497C36.8142 173.707 37.2548 173.647 37.3464 173.91C37.4761 174.284 36.6774 174.646 36.7595 175.121C36.8434 175.606 37.7878 175.88 38.4924 175.958C39.8144 176.105 40.6743 175.603 41.5835 175.316C42.5715 175.005 44.0798 174.8 46.2341 175.428L65.1546 181.69C61.27 180.302 50.6165 176.269 46.6533 174.563C45.5092 174.071 44.3478 173.525 43.8696 172.365C43.4092 171.248 43.6377 169.695 43.1205 167.733C43.0602 167.504 42.8839 166.869 42.5057 166.796C42.193 166.736 42.0271 167.116 41.7343 167.064C41.3416 166.995 41.3213 166.255 40.8511 165.357C40.5195 164.723 40.1328 164.331 39.8002 163.995C39.6999 163.894 38.1914 162.387 37.6314 162.734L37.6314 162.734H37.6314Z" fill="#F2F2F2"/>
<path d="M47.2085 159.443L45.5566 157.336L45.5667 157.093C45.6138 155.968 45.4091 155.025 44.9581 154.287C44.8864 154.17 44.8087 154.056 44.7296 153.94C44.4162 153.482 44.0263 152.911 43.9104 152.038C43.8468 151.551 43.7844 150.371 44.578 150.033C44.7903 149.94 44.9935 149.939 45.1706 149.975C45.1708 149.938 45.1716 149.902 45.1721 149.862C45.1856 149.379 45.2736 149.121 45.3583 148.873C45.4233 148.682 45.4907 148.485 45.5407 148.086C45.5626 147.911 45.5726 147.763 45.5811 147.639C45.6076 147.262 45.6606 146.8 46.0965 146.539C46.5722 146.277 47.0498 146.509 47.3662 146.663C47.9306 146.937 48.2609 147.182 48.4798 147.345C48.5596 147.404 48.6499 147.471 48.6848 147.487C48.9688 147.614 50.0533 146.665 50.4635 146.31C51.3827 145.509 52.1782 144.816 52.9416 145.236C53.4882 145.536 53.6705 146.266 53.4959 147.464C53.4413 147.837 53.3372 148.159 53.2327 148.425C53.4536 148.422 53.6893 148.481 53.891 148.677C54.3678 149.141 54.2348 149.981 53.4974 151.177C53.3149 151.475 53.068 151.874 52.6203 152.269C52.4093 152.454 52.2029 152.595 52.0245 152.712C52.0854 152.82 52.131 152.948 52.1391 153.105C52.1639 153.565 51.8742 153.969 51.2607 154.292C50.5914 154.657 49.9813 154.862 49.4435 155.044C48.9742 155.203 48.5707 155.341 48.304 155.531C47.8138 155.89 47.6707 156.546 47.5343 157.368L47.2085 159.443L47.2085 159.443V159.443Z" fill="#F2F2F2"/>
<path d="M40.0643 145.238L38.4409 147.368L38.2028 147.42C37.1015 147.659 36.2391 148.096 35.6386 148.719C35.5431 148.818 35.4527 148.922 35.3606 149.027C34.9955 149.446 34.5419 149.967 33.7253 150.301C33.2692 150.486 32.1412 150.846 31.6129 150.165C31.469 149.983 31.4162 149.788 31.406 149.607C31.3708 149.616 31.335 149.625 31.2966 149.635C30.8246 149.744 30.5526 149.725 30.2905 149.706C30.0891 149.691 29.8813 149.676 29.4821 149.729C29.3071 149.752 29.1612 149.78 29.0385 149.804C28.6666 149.874 28.205 149.94 27.8418 149.585C27.4668 149.192 27.5711 148.672 27.6399 148.327C27.7625 147.713 27.916 147.332 28.0179 147.079C28.0553 146.987 28.097 146.883 28.1038 146.845C28.1549 146.539 26.9599 145.732 26.5119 145.426C25.5027 144.742 24.6294 144.15 24.843 143.306C24.9954 142.702 25.6561 142.341 26.8614 142.206C27.2366 142.164 27.5751 142.183 27.8598 142.216C27.8007 142.003 27.7977 141.761 27.9362 141.517C28.2648 140.938 29.1131 140.854 30.4589 141.262C30.7938 141.363 31.2434 141.5 31.7393 141.832C31.9728 141.989 32.1613 142.153 32.3202 142.295C32.4088 142.209 32.5221 142.132 32.6715 142.085C33.1109 141.944 33.5764 142.121 34.0451 142.632C34.5686 143.185 34.9219 143.723 35.2342 144.196C35.5073 144.609 35.7436 144.963 35.9951 145.173C36.4672 145.555 37.1398 145.527 37.9706 145.45L40.0644 145.238L40.0643 145.238L40.0643 145.238Z" fill="#F2F2F2"/>
<path d="M34.7676 139.293L33.1156 137.185L33.1258 136.942C33.1729 135.818 32.9681 134.875 32.5171 134.137C32.4455 134.02 32.3678 133.906 32.2887 133.79C31.9752 133.331 31.5854 132.761 31.4695 131.888C31.4059 131.401 31.3435 130.22 32.1371 129.883C32.3494 129.79 32.5526 129.789 32.7297 129.825C32.7299 129.788 32.7307 129.752 32.7312 129.712C32.7447 129.229 32.8327 128.971 32.9174 128.723C32.9824 128.532 33.0498 128.335 33.0998 127.936C33.1217 127.761 33.1316 127.613 33.1402 127.489C33.1667 127.112 33.2196 126.65 33.6556 126.389C34.1313 126.126 34.6089 126.359 34.9252 126.513C35.4897 126.787 35.82 127.032 36.0389 127.194C36.1187 127.254 36.209 127.321 36.2439 127.337C36.5279 127.464 37.6124 126.514 38.0226 126.159C38.9418 125.359 39.7372 124.666 40.5007 125.086C41.0473 125.386 41.2296 126.116 41.055 127.314C41.0004 127.687 40.8963 128.009 40.7918 128.275C41.0127 128.272 41.2484 128.331 41.4501 128.527C41.9269 128.99 41.7939 129.831 41.0565 131.027C40.874 131.325 40.6271 131.724 40.1794 132.119C39.9683 132.304 39.762 132.445 39.5835 132.562C39.6445 132.669 39.6901 132.798 39.6982 132.955C39.723 133.415 39.4333 133.819 38.8198 134.142C38.1505 134.507 37.5403 134.712 37.0026 134.894C36.5333 135.053 36.1298 135.191 35.8631 135.381C35.3729 135.739 35.2298 136.396 35.0933 137.218L34.7676 139.293L34.7676 139.293L34.7676 139.293Z" fill="#F2F2F2"/>
<path d="M64.2222 181.813L63.5633 181.808L63.1102 181.331L63.5633 181.808L63.0483 182.212C63.0078 182.166 62.9048 182.067 62.7453 181.91C61.8722 181.05 59.2139 178.435 55.5875 173.971C53.0562 170.855 50.6572 167.527 48.4559 164.076C46.2513 160.621 44.7866 157.879 43.6089 155.675C42.721 154.013 41.9016 152.414 41.1044 150.856C38.9731 146.695 36.9595 142.764 34.1758 138.754C33.5548 137.858 32.2613 135.994 29.867 134.637C28.4783 133.85 26.9249 133.349 25.2505 133.148L25.4079 131.842C27.257 132.065 28.9764 132.621 30.5184 133.494C33.173 134.999 34.5825 137.03 35.2597 138.005C38.0925 142.087 40.1251 146.055 42.2767 150.257C43.0716 151.809 43.8869 153.401 44.7714 155.057C45.938 157.24 47.3901 159.958 49.5666 163.369C51.7411 166.778 54.111 170.066 56.61 173.143C60.1909 177.55 62.81 180.126 63.6703 180.973C64.1293 181.425 64.2256 181.52 64.2222 181.813L64.2222 181.813Z" fill="#F2F2F2"/>
<path d="M24.292 136.192C24.246 136.221 24.1988 136.248 24.1497 136.274C23.1629 136.81 21.9263 136.783 20.4738 136.196C19.7918 135.918 19.2466 135.459 18.1594 134.542C17.9914 134.401 17.1519 133.678 16.2154 132.548C15.6033 131.81 15.4089 131.463 15.3851 131.066C15.3579 130.624 15.5028 130.215 15.7305 129.859C15.6501 129.761 15.5934 129.643 15.5704 129.502C15.4733 128.918 16.0193 128.666 16.3124 128.527C16.4623 128.459 16.65 128.375 16.8312 128.25C17.1171 128.054 17.2213 127.869 17.3801 127.591C17.532 127.324 17.7207 126.992 18.0907 126.645C18.8179 125.958 19.663 125.764 19.9414 125.7C21.4034 125.357 22.5825 125.93 23.9476 126.594C24.2206 126.728 25.1856 127.233 26.1719 128.131C26.8835 128.78 27.0677 129.149 27.1605 129.451C27.3526 130.07 27.2157 130.577 26.8055 131.762C26.3781 133.001 26.1631 133.622 25.9237 134.066C25.3654 135.099 25.0148 135.748 24.292 136.192L24.292 136.192H24.292Z" fill="#F2F2F2"/>
<path d="M75.2548 112.267L83.8639 110.27L84.4809 112.055L88.6458 110.932L91.3927 110.191L94.0607 105.017L92.1678 99.5404L86.531 99.4877L84.8074 99.826L79.9995 100.77C79.5924 101.442 79.8147 102.317 80.4936 102.714L80.7163 102.844L73.9519 104.013C73.9519 104.013 71.7912 107.852 75.2548 112.267V112.267Z" fill="#3F3D56"/>
<path d="M84.8076 99.826L88.646 110.932L91.3929 110.191L94.0609 105.017L92.168 99.5404L86.5312 99.4877L84.8076 99.826Z" fill="#2F2E41"/>
<path d="M83.351 100.289C83.9435 100.158 84.3707 99.8122 84.3051 99.5164C84.2395 99.2207 83.706 99.0871 83.1135 99.218C82.5209 99.3489 82.0937 99.6948 82.1593 99.9906C82.2249 100.286 82.7584 100.42 83.351 100.289Z" fill="#3F3D56"/>
<path d="M218.465 183.01L214.334 174.295L214.309 174.312V162.985H210.593V174.312L210.569 174.295L206.437 183.257C206.315 183.472 206.39 183.745 206.605 183.868C206.787 183.971 207.017 183.935 207.158 183.78L211.384 178.844L212.068 183.338C212.095 183.584 212.316 183.761 212.562 183.734C212.771 183.711 212.935 183.546 212.959 183.338L213.635 178.894L217.744 183.533C217.911 183.715 218.194 183.729 218.377 183.563C218.532 183.422 218.569 183.192 218.465 183.01Z" fill="#2F2E41"/>
<path d="M188.954 150.277C188.296 154.622 197.816 162.26 211.851 164.377C225.886 166.495 239.579 163.436 240.237 159.091C240.895 154.746 229.984 150.309 215.949 148.191C201.914 146.074 189.612 145.932 188.954 150.277Z" fill="#9F8772"/>
<path opacity="0.3" d="M188.954 150.277C188.296 154.622 197.816 162.26 211.851 164.377C225.886 166.495 239.579 163.436 240.237 159.091C240.895 154.746 229.984 150.309 215.949 148.191C201.914 146.074 189.612 145.932 188.954 150.277Z" fill="black"/>
<path d="M189.507 149.641C188.965 153.22 198.255 159.362 212.29 161.479C226.325 163.597 239.838 162.084 240.38 158.505C240.922 154.927 229.984 150.309 215.949 148.191C201.914 146.074 190.049 146.063 189.507 149.641H189.507Z" fill="#9F8772"/>
<path d="M221.289 96.444H168.851C166.74 96.444 165.022 94.7295 165.022 92.6224V53.041C165.022 50.9339 166.74 49.2195 168.851 49.2195H221.289C223.4 49.2195 225.117 50.9339 225.117 53.041V92.6224C225.117 94.7295 223.4 96.444 221.289 96.444Z" fill="white"/>
<path d="M221.289 96.444H168.851C166.74 96.444 165.022 94.7295 165.022 92.6224V53.041C165.022 50.9339 166.74 49.2195 168.851 49.2195H221.289C223.4 49.2195 225.117 50.9339 225.117 53.041V92.6224C225.117 94.7295 223.4 96.444 221.289 96.444ZM168.851 49.8577C167.092 49.8577 165.662 51.2857 165.662 53.041V92.6224C165.662 94.3777 167.092 95.8058 168.851 95.8058H221.289C223.047 95.8058 224.478 94.3777 224.478 92.6224V53.041C224.478 51.2857 223.047 49.8577 221.289 49.8577H168.851Z" fill="#3F3D56"/>
<path d="M215.528 54.0058C216.057 54.0058 216.487 53.5772 216.487 53.0485C216.487 52.5198 216.057 52.0912 215.528 52.0912C214.998 52.0912 214.569 52.5198 214.569 53.0485C214.569 53.5772 214.998 54.0058 215.528 54.0058Z" fill="#3F3D56"/>
<path d="M218.085 54.0058C218.615 54.0058 219.044 53.5772 219.044 53.0485C219.044 52.5198 218.615 52.0912 218.085 52.0912C217.555 52.0912 217.126 52.5198 217.126 53.0485C217.126 53.5772 217.555 54.0058 218.085 54.0058Z" fill="#3F3D56"/>
<path d="M220.642 54.0058C221.172 54.0058 221.601 53.5772 221.601 53.0485C221.601 52.5198 221.172 52.0912 220.642 52.0912C220.112 52.0912 219.683 52.5198 219.683 53.0485C219.683 53.5772 220.112 54.0058 220.642 54.0058Z" fill="#3F3D56"/>
<path d="M170.457 68.5241C170.192 68.5241 169.977 68.7388 169.977 69.0027C169.977 69.1314 170.027 69.2505 170.117 69.3383C170.208 69.4315 170.328 69.4814 170.457 69.4814H220.003C220.267 69.4814 220.482 69.2667 220.482 69.0027C220.482 68.874 220.433 68.755 220.342 68.6671C220.251 68.574 220.132 68.5241 220.003 68.5241H170.457Z" fill="#E6E6E6"/>
<path d="M211.053 68.3646V69.6409H170.457C170.281 69.6409 170.121 69.5707 170.006 69.4526C169.888 69.3378 169.817 69.1782 169.817 69.0027C169.817 68.6517 170.105 68.3646 170.457 68.3646H211.053Z" fill="#9F8772"/>
<path d="M219.204 65.9714H212.811C212.106 65.9714 211.532 65.399 211.532 64.6951C211.532 63.9912 212.106 63.4188 212.811 63.4188H219.204C219.909 63.4188 220.483 63.9912 220.483 64.6951C220.483 65.399 219.909 65.9714 219.204 65.9714Z" fill="#E6E6E6"/>
<path d="M177.329 59.2706H170.936C170.231 59.2706 169.657 58.6982 169.657 57.9943C169.657 57.2904 170.231 56.718 170.936 56.718H177.329C178.034 56.718 178.608 57.2904 178.608 57.9943C178.608 58.6982 178.034 59.2706 177.329 59.2706Z" fill="#E6E6E6"/>
<path d="M170.457 82.8829C170.192 82.8829 169.977 83.0976 169.977 83.3615C169.977 83.4902 170.027 83.6092 170.117 83.6971C170.208 83.7903 170.328 83.8401 170.457 83.8401H220.003C220.267 83.8401 220.482 83.6254 220.482 83.3615C220.482 83.2328 220.433 83.1138 220.342 83.0259C220.251 82.9327 220.132 82.8829 220.003 82.8829H170.457Z" fill="#E6E6E6"/>
<path d="M186.439 82.7233V83.9997H170.457C170.281 83.9997 170.121 83.9295 170.006 83.8114C169.888 83.6965 169.817 83.537 169.817 83.3615C169.817 83.0105 170.105 82.7233 170.457 82.7233H186.439Z" fill="#9F8772"/>
<path d="M219.204 80.3302H212.811C212.106 80.3302 211.532 79.7578 211.532 79.0539C211.532 78.3499 212.106 77.7775 212.811 77.7775H219.204C219.909 77.7775 220.483 78.3499 220.483 79.0539C220.483 79.7578 219.909 80.3302 219.204 80.3302Z" fill="#E6E6E6"/>
</g>
<defs>
<clipPath id="clip0_724_5679">
<rect width="284" height="189" fill="white"/>
</clipPath>
</defs>
</svg>
