<svg width="72" height="72" viewBox="0 0 72 72" fill="none" xmlns="http://www.w3.org/2000/svg">
<g id="24x24/On Light/Schedule">
<path id="Shape" fill-rule="evenodd" clip-rule="evenodd" d="M52.5 20.2501L52.4795 20.25H19.5205C19.5137 20.2501 19.5068 20.2501 19.5 20.2501C19.4932 20.2501 19.4863 20.2501 19.4795 20.25H18C15.9289 20.25 14.25 21.9289 14.25 24V29.25H57.75V24C57.75 21.9289 56.0711 20.25 54 20.25H52.5205L52.5 20.2501ZM17.25 15.7837C13.0451 16.1626 9.75 19.6965 9.75 24V29.25V33.75V54C9.75 58.5564 13.4437 62.25 18 62.25H54C58.5564 62.25 62.25 58.5564 62.25 54V33.75V29.25V24C62.25 19.6965 58.9549 16.1626 54.75 15.7837V12.0001C54.75 10.7575 53.7426 9.75009 52.5 9.75009C51.2574 9.75009 50.25 10.7575 50.25 12.0001V15.75H21.75V12.0001C21.75 10.7575 20.7426 9.75009 19.5 9.75009C18.2574 9.75009 17.25 10.7575 17.25 12.0001V15.7837ZM14.25 33.75V54C14.25 56.0711 15.9289 57.75 18 57.75H54C56.0711 57.75 57.75 56.0711 57.75 54V33.75H14.25Z" fill="black"/>
</g>
</svg>
