<svg width="72" height="72" viewBox="0 0 72 72" fill="none" xmlns="http://www.w3.org/2000/svg">
<g id="24x24/On Light/Search">
<path id="Shape" fill-rule="evenodd" clip-rule="evenodd" d="M43.5 50.25C55.5122 50.25 65.25 40.5122 65.25 28.5C65.25 16.4878 55.5122 6.75 43.5 6.75C31.4878 6.75 21.75 16.4878 21.75 28.5C21.75 33.6957 23.5718 38.4658 26.6115 42.2066L10.409 58.409C9.53033 59.2877 9.53033 60.7123 10.409 61.591C11.2877 62.4697 12.7123 62.4697 13.591 61.591L29.7934 45.3885C33.5342 48.4282 38.3043 50.25 43.5 50.25ZM43.5 45.75C33.9731 45.75 26.25 38.0269 26.25 28.5C26.25 18.9731 33.9731 11.25 43.5 11.25C53.0269 11.25 60.75 18.9731 60.75 28.5C60.75 38.0269 53.0269 45.75 43.5 45.75Z" fill="#141124"/>
</g>
</svg>
