<svg width="72" height="72" viewBox="0 0 72 72" fill="none" xmlns="http://www.w3.org/2000/svg">
<g id="24x24/On Light/Spectacles">
<path id="Shape" fill-rule="evenodd" clip-rule="evenodd" d="M51 14.25H54C56.0711 14.25 57.75 15.9289 57.75 18V41.9992C55.8698 40.5869 53.5326 39.75 51 39.75C47.0373 39.75 43.5532 41.7988 41.549 44.8949C40.0837 43.5623 38.1367 42.75 36 42.75C33.8633 42.75 31.9163 43.5623 30.451 44.8949C28.4468 41.7988 24.9627 39.75 21 39.75C18.4674 39.75 16.1302 40.5869 14.25 41.9992V18C14.25 15.9289 15.9289 14.25 18 14.25H21C22.2426 14.25 23.25 13.2426 23.25 12C23.25 10.7574 22.2426 9.75 21 9.75H18C13.4437 9.75 9.75 13.4437 9.75 18V50.7176C9.75 50.7468 9.75056 50.7759 9.75166 50.8048C9.75055 50.8697 9.75 50.9348 9.75 51C9.75 57.2132 14.7868 62.25 21 62.25C27.2132 62.25 32.25 57.2132 32.25 51C32.25 48.9289 33.9289 47.25 36 47.25C38.0711 47.25 39.75 48.9289 39.75 51C39.75 57.2132 44.7868 62.25 51 62.25C57.2132 62.25 62.25 57.2132 62.25 51C62.25 50.9348 62.2494 50.8697 62.2483 50.8048C62.2494 50.7759 62.25 50.7468 62.25 50.7176V18C62.25 13.4437 58.5564 9.75 54 9.75H51C49.7574 9.75 48.75 10.7574 48.75 12C48.75 13.2426 49.7574 14.25 51 14.25ZM44.25 51C44.25 54.7279 47.2721 57.75 51 57.75C54.7279 57.75 57.75 54.7279 57.75 51C57.75 47.2721 54.7279 44.25 51 44.25C47.2721 44.25 44.25 47.2721 44.25 51ZM14.25 51C14.25 54.7279 17.2721 57.75 21 57.75C24.7279 57.75 27.75 54.7279 27.75 51C27.75 47.2721 24.7279 44.25 21 44.25C17.2721 44.25 14.25 47.2721 14.25 51Z" fill="#141124"/>
</g>
</svg>
