<svg width="298" height="216" viewBox="0 0 298 216" fill="none" xmlns="http://www.w3.org/2000/svg">
<g clip-path="url(#clip0_693_680)">
<path d="M298 118.924C298 119.134 297.83 119.304 297.621 119.304H0V118.544H297.621C297.83 118.544 298 118.714 298 118.924Z" fill="#E6E6E6"/>
<path d="M97.8594 26.6549C104.071 26.6549 109.107 21.6102 109.107 15.3872C109.107 9.16425 104.071 4.11954 97.8594 4.11954C91.6477 4.11954 86.6121 9.16425 86.6121 15.3872C86.6121 21.6102 91.6477 26.6549 97.8594 26.6549Z" fill="#FFB6B6"/>
<path d="M103.819 29.0324L89.0148 33.2699L86.8999 38.0371L82.1413 60.8138V96.8326C82.1413 96.8326 76.3252 109.545 79.4976 120.669C82.8886 132.558 94.8309 118.525 103.819 120.126C112.808 121.728 127.084 123.317 127.084 123.317L118.624 84.6497L116.509 37.5075L103.819 29.0324H103.819Z" fill="#E6E6E6"/>
<path d="M101.026 19.0771L98.739 17.9317C98.739 17.9317 98.1673 12.7773 97.024 11.6319C95.8806 10.4865 95.8806 9.91379 95.8806 9.91379L97.5956 7.62296C97.5956 7.62296 89.0205 12.2046 87.3055 9.34108C85.5905 6.47754 87.8772 5.33213 87.8772 5.33213L85.0188 3.0413C85.0188 3.0413 88.4488 5.33213 89.0205 3.61401C89.5922 1.89588 93.0222 0.730175 93.0222 0.730175C93.0222 0.730175 100.513 2.428 99.9116 0.730175C99.3107 -0.967654 101.597 0.75047 102.169 1.32318C102.741 1.89588 107.886 7.62296 108.457 7.05025C109.029 6.47754 111.888 8.19566 111.316 8.76837C110.744 9.34109 110.744 9.91379 111.316 10.4865C111.888 11.0592 115.318 17.359 112.459 19.6498C109.601 21.9406 105.599 24.8042 106.171 27.095C106.742 29.3858 106.171 19.6498 101.026 19.0771L101.026 19.0771Z" fill="#2F2E41"/>
<path d="M45.5814 47.4462C42.6946 44.9531 41.6386 41.4401 43.2227 39.5999C44.8067 37.7596 48.4303 38.2892 51.3178 40.7835C52.4849 41.764 53.4006 43.0103 53.9884 44.418L66.0867 55.1358L60.9452 60.7163L49.5642 49.5579C48.0873 49.1828 46.7216 48.4586 45.5814 47.4462L45.5814 47.4462Z" fill="#FFB6B6"/>
<path d="M87.0267 38.2193L94.996 37.4936L101.985 70.8853C103.317 77.248 99.1533 83.4599 92.7706 84.6336L87.0267 85.6899L50.4172 53.3981L55.7659 44.4656L82.7637 61.4316L87.0267 38.2193V38.2193Z" fill="#E6E6E6"/>
<path d="M69.2352 186.716C69.2352 186.716 62.9144 198.476 63.3659 198.024C63.8173 197.572 71.4926 200.286 71.4926 200.286L76.0075 188.526L69.2352 186.716Z" fill="#FFB6B6"/>
<path d="M59.906 104.399C59.906 104.399 56.6704 117.356 56.9968 116.807C57.3232 116.257 65.4292 116.994 65.4292 116.994L66.9145 104.482L59.906 104.399H59.906Z" fill="#FFB6B6"/>
<path d="M116.19 102.221C101.906 104.231 89.0035 102.478 78.4907 94.2205C78.4907 94.2205 70.8154 120.002 84.8115 122.716C98.8076 125.429 114.384 120.765 116.19 116.242C117.996 111.719 116.19 102.221 116.19 102.221Z" fill="#2F2E41"/>
<path d="M89.5521 110.362L73.9758 147.14L66.752 189.656L76.2332 191.918L93.1924 152.794L116.19 115.337L89.5521 110.362Z" fill="#2F2E41"/>
<path d="M87.5205 99.8742C87.5205 99.8742 83.9086 71.8314 77.1363 70.0222C73.8347 69.1402 70.7478 69.2257 68.4509 69.5449C66.1358 69.8667 64.2903 71.6386 63.8855 73.9447L57.7312 109.005H66.4339L69.2352 99.5067L76.6848 112.539L87.5205 99.8742V99.8742Z" fill="#2F2E41"/>
<path d="M65.3976 113.443L56.7927 112.539L55.4649 117.514C55.4649 117.514 41.4688 130.179 48.6926 131.083C55.9164 131.988 62.6887 127.012 62.6887 127.012L72.6258 121.302C72.6258 121.302 68.7838 111.04 66.0748 111.04C63.3659 111.04 65.3976 113.443 65.3976 113.443Z" fill="#2F2E41"/>
<path d="M69.9125 198.25L61.3076 197.346L59.9798 202.321C59.9798 202.321 45.9836 214.985 53.2074 215.89C60.4313 216.795 67.2036 211.819 67.2036 211.819L77.1407 206.109C77.1407 206.109 76.4591 195.395 73.7501 195.395C71.0412 195.395 69.9125 198.25 69.9125 198.25Z" fill="#2F2E41"/>
<path d="M113.482 129.779C112.445 133.343 109.768 135.697 107.503 135.035C105.239 134.373 104.245 130.947 105.283 127.381C105.678 125.951 106.41 124.637 107.416 123.548L112.002 108.499L119.006 110.806L113.741 125.396C114.005 126.857 113.916 128.359 113.482 129.779Z" fill="#FFB6B6"/>
<path d="M118.329 37.573L114.678 36.5412V36.5412C111.234 43.4046 109.754 51.0886 110.4 58.7429L112.202 80.1008L106.255 117.641L117.911 120.662L127.096 73.5506L118.329 37.573V37.573Z" fill="#E6E6E6"/>
<path d="M47.2381 96.2663C47.0782 95.776 45.8662 95.9919 45.7498 95.5534C45.6338 95.1165 46.7968 94.7501 47.6888 93.5189C47.8497 93.2969 48.8633 91.8977 48.4746 91.3092C47.7377 90.1937 42.6106 92.9719 41.3799 91.4129C41.1098 91.0707 40.9987 90.4833 40.1941 89.3902C39.874 88.9553 39.6686 88.7454 39.4232 88.7516C39.0751 88.7604 38.9505 89.1967 38.4033 89.9871C37.5827 91.1725 37.2865 91.0236 36.7459 91.9949C36.3446 92.7158 36.2971 93.1765 36.0077 93.2037C35.5982 93.2421 35.4289 92.3444 34.9285 92.3096C34.4179 92.2741 33.9069 93.1611 33.6536 93.854C33.1783 95.1545 33.4726 96.1484 33.5379 97.139C33.6088 98.2155 33.4423 99.7913 32.2747 101.814L21.2622 119.391C23.6273 115.808 30.3407 106.037 33.0456 102.453C33.8264 101.418 34.6655 100.379 35.957 100.183C37.2005 99.9953 38.7134 100.612 40.8252 100.576C41.0718 100.572 41.7581 100.551 41.9251 100.187C42.0631 99.8853 41.7204 99.6234 41.8451 99.3401C42.0123 98.9602 42.7647 99.1232 43.79 98.8709C44.513 98.693 45.0042 98.3991 45.4266 98.1463C45.5539 98.0701 47.451 96.9188 47.2381 96.2663H47.2381L47.2381 96.2663Z" fill="#F2F2F2"/>
<path d="M18.3942 100.37C18.1079 100.307 17.864 100.966 17.6156 100.896C17.3681 100.827 17.5242 100.15 17.1783 99.3558C17.116 99.2127 16.7229 98.3106 16.3224 98.3319C15.5633 98.3724 15.4451 101.695 14.3262 101.85C14.0806 101.884 13.7608 101.769 12.9931 101.85C12.6877 101.882 12.5256 101.922 12.4578 102.044C12.3617 102.218 12.5395 102.405 12.7688 102.902C13.1128 103.648 12.9544 103.751 13.2743 104.297C13.5117 104.702 13.7237 104.858 13.6535 105.008C13.5541 105.221 13.0655 105.045 12.9041 105.281C12.7394 105.522 13.0265 106.029 13.2929 106.354C13.7928 106.962 14.3647 107.105 14.8689 107.358C15.4167 107.634 16.1407 108.171 16.7947 109.328L22.2288 119.815C21.1557 117.618 18.3055 111.498 17.33 109.133C17.0484 108.451 16.7815 107.739 17.0584 107.047C17.325 106.382 18.0635 105.815 18.6552 104.767C18.7243 104.644 18.9123 104.301 18.782 104.114C18.6742 103.959 18.4469 104.052 18.3442 103.909C18.2063 103.717 18.5032 103.394 18.6754 102.817C18.7969 102.41 18.7946 102.084 18.7926 101.803C18.792 101.719 18.7754 100.454 18.3943 100.37V100.37L18.3942 100.37Z" fill="#F2F2F2"/>
<path d="M23.8154 102.929L23.9862 101.349L24.091 101.25C24.5757 100.791 24.8789 100.305 24.9926 99.8042C25.0107 99.7247 25.0247 99.6442 25.0391 99.5623C25.0958 99.2374 25.1662 98.8336 25.478 98.4142C25.6524 98.1805 26.1139 97.6524 26.5899 97.8369C26.7184 97.8851 26.8051 97.9685 26.8653 98.057C26.8804 98.0416 26.8959 98.0263 26.9125 98.0097C27.1181 97.8096 27.2619 97.7362 27.4005 97.6656C27.5069 97.6113 27.6169 97.5554 27.8029 97.4063C27.8845 97.341 27.9499 97.2821 28.005 97.2327C28.172 97.0833 28.3856 96.9084 28.6782 96.9777C28.9884 97.0626 29.0948 97.359 29.1653 97.5553C29.2913 97.9053 29.3301 98.146 29.3558 98.3057C29.3651 98.364 29.3758 98.4296 29.3839 98.451C29.4518 98.6224 30.3041 98.6668 30.6247 98.6853C31.3456 98.7245 31.9693 98.7584 32.1193 99.2528C32.227 99.6066 32.0026 99.9924 31.4334 100.43C31.256 100.566 31.0788 100.66 30.9243 100.73C31.0193 100.82 31.095 100.943 31.0996 101.109C31.1101 101.504 30.7062 101.807 29.8992 102.011C29.6986 102.062 29.4289 102.13 29.0759 102.113C28.9097 102.105 28.7641 102.079 28.64 102.055C28.6214 102.126 28.5875 102.2 28.5263 102.27C28.3467 102.476 28.0566 102.528 27.6629 102.412C27.2283 102.291 26.8848 102.126 26.5818 101.98C26.3171 101.854 26.0888 101.746 25.8973 101.717C25.5411 101.667 25.209 101.887 24.8115 102.18L23.8154 102.929H23.8154L23.8154 102.929Z" fill="#F2F2F2"/>
<path d="M26.6582 93.9303L25.0895 94.1655L24.9671 94.0892C24.4011 93.7359 23.8547 93.5654 23.3427 93.5821C23.2613 93.5847 23.1801 93.5916 23.0973 93.5985C22.7693 93.6259 22.3615 93.6601 21.8775 93.4644C21.6076 93.3546 20.9806 93.0413 21.038 92.5333C21.052 92.3966 21.1106 92.2914 21.1807 92.2106C21.162 92.1998 21.1433 92.1887 21.1231 92.1769C20.8777 92.0284 20.7704 91.9076 20.6671 91.7913C20.5876 91.7019 20.5057 91.6095 20.3146 91.4671C20.2308 91.4045 20.1574 91.3561 20.0957 91.3153C19.9091 91.1914 19.686 91.0287 19.6787 90.7276C19.682 90.4055 19.9413 90.2272 20.1129 90.109C20.4189 89.8982 20.6414 89.7995 20.7891 89.7341C20.843 89.7104 20.9037 89.6833 20.9223 89.67C21.0706 89.5608 20.8972 88.7236 20.8338 88.4082C20.6888 87.6997 20.5633 87.0867 21.0027 86.8159C21.3169 86.6219 21.7464 86.7414 22.3134 87.182C22.4898 87.3193 22.6255 87.4673 22.7325 87.5991C22.7952 87.4843 22.8942 87.3799 23.054 87.3331C23.4323 87.2229 23.827 87.5376 24.2287 88.2678C24.3291 88.4491 24.4631 88.6933 24.536 89.0397C24.5703 89.2028 24.5826 89.3504 24.591 89.4768C24.6642 89.4767 24.7439 89.4909 24.8269 89.5325C25.0714 89.6543 25.1955 89.9221 25.1833 90.3331C25.1764 90.785 25.1042 91.1597 25.041 91.4902C24.9861 91.7787 24.9397 92.0273 24.9598 92.2204C25.0019 92.5782 25.2989 92.8442 25.6829 93.155L26.6583 93.9303H26.6583L26.6582 93.9303Z" fill="#F2F2F2"/>
<path d="M26.8696 89.2109L27.0404 87.631L27.1452 87.5318C27.6299 87.0729 27.9331 86.5867 28.0468 86.0863C28.0649 86.0068 28.0789 85.9263 28.0933 85.8443C28.15 85.5195 28.2204 85.1157 28.5322 84.6963C28.7066 84.4626 29.1681 83.9345 29.6441 84.1189C29.7726 84.1672 29.8593 84.2506 29.9195 84.3391C29.9346 84.3237 29.9501 84.3084 29.9667 84.2918C30.1723 84.0916 30.3161 84.0183 30.4547 83.9477C30.5611 83.8934 30.6711 83.8374 30.8571 83.6884C30.9387 83.623 31.0041 83.5642 31.0591 83.5148C31.2262 83.3654 31.4398 83.1904 31.7324 83.2597C32.0426 83.3447 32.149 83.6411 32.2195 83.8373C32.3455 84.1874 32.3843 84.4281 32.41 84.5877C32.4193 84.646 32.43 84.7117 32.4381 84.7331C32.506 84.9045 33.3583 84.9488 33.6789 84.9674C34.3998 85.0065 35.0235 85.0404 35.1735 85.5349C35.2812 85.8886 35.0568 86.2745 34.4876 86.7121C34.3102 86.8483 34.133 86.9423 33.9785 87.0125C34.0735 87.1025 34.1492 87.2248 34.1538 87.3915C34.1643 87.786 33.7604 88.0888 32.9534 88.2928C32.7528 88.3441 32.4831 88.412 32.1301 88.3948C31.9639 88.3866 31.8183 88.3611 31.6942 88.3373C31.6756 88.4081 31.6417 88.4818 31.5805 88.5517C31.4009 88.7577 31.1108 88.8101 30.7171 88.694C30.2825 88.5726 29.939 88.4076 29.636 88.2625C29.3713 88.1362 29.143 88.0282 28.9515 87.9987C28.5953 87.9488 28.2632 88.1691 27.8657 88.4623L26.8696 89.2109H26.8696L26.8696 89.2109Z" fill="#F2F2F2"/>
<path d="M21.7828 119.481L21.5054 119.207L21.5104 118.816L21.5054 119.207L21.1199 119.166C21.1217 119.13 21.1192 119.045 21.1164 118.912C21.1015 118.185 21.0555 115.973 21.363 112.575C21.5776 110.202 21.9364 107.794 22.4292 105.416C22.9229 103.034 23.4352 101.262 23.8467 99.8373C24.1573 98.7629 24.4707 97.7438 24.7767 96.7512C25.5933 94.0992 26.3643 91.5941 26.8418 88.7367C26.9487 88.0988 27.1706 86.771 26.7163 85.2039C26.4527 84.2949 26.0013 83.4394 25.3743 82.6618L25.9812 82.1708C26.6731 83.0301 27.1722 83.9776 27.4649 84.9868C27.9687 86.7244 27.7269 88.1712 27.6107 88.8663C27.1247 91.7742 26.346 94.3034 25.5214 96.9809C25.217 97.97 24.9045 98.9846 24.5953 100.055C24.1876 101.466 23.6798 103.223 23.1926 105.574C22.7053 107.924 22.3512 110.303 22.1389 112.645C21.8355 116.001 21.8811 118.18 21.896 118.896C21.9037 119.278 21.9054 119.358 21.7828 119.481L21.7828 119.481Z" fill="#F2F2F2"/>
<path d="M23.7097 83.5609C23.6785 83.554 23.6471 83.5462 23.6156 83.5368C22.9756 83.3571 22.4622 82.8345 22.0893 81.984C21.9148 81.584 21.8736 81.1631 21.7914 80.3236C21.7785 80.1942 21.7215 79.5393 21.7916 78.6713C21.8371 78.1041 21.898 77.8763 22.0521 77.6974C22.2232 77.4982 22.4537 77.384 22.6973 77.3267C22.7038 77.2516 22.7284 77.1782 22.777 77.1086C22.9774 76.8198 23.3128 76.9385 23.4948 77.0003C23.5865 77.0332 23.7008 77.0752 23.8293 77.0969C24.0313 77.1318 24.1519 77.0963 24.3345 77.0433C24.5092 76.9925 24.7264 76.9293 25.0266 76.9347C25.6191 76.9429 26.0576 77.2096 26.2022 77.2974C26.9639 77.7558 27.2268 78.4873 27.5311 79.3342C27.5916 79.504 27.7923 80.1176 27.839 80.9077C27.8727 81.4778 27.7982 81.7111 27.7127 81.8779C27.5381 82.221 27.2707 82.38 26.607 82.7145C25.9136 83.0651 25.5658 83.2405 25.2805 83.3306C24.6168 83.5394 24.2 83.6705 23.7097 83.5609V83.5609Z" fill="#F2F2F2"/>
<path d="M201.695 17.4333C201.695 17.4333 206 19.963 204.588 22.4647C203.176 24.9664 201.207 28.3739 202.543 29.4471C203.878 30.5203 206.083 35.252 206.083 35.252C206.083 35.252 215.495 33.9351 214.611 41.259C213.728 48.583 209.306 49.5815 213.096 52.8035C216.886 56.0255 209.157 59.8789 209.157 59.8789C209.157 59.8789 203.822 58.2133 202.605 53.0914C201.388 47.9695 203.69 57.0078 202.918 57.6558C202.146 58.3039 199.148 62.5755 197.026 56.8961C194.905 51.2167 197.006 49.0147 194.202 45.6628C191.399 42.3108 189.493 36.8893 189.577 35.9415C189.66 34.9938 186.37 26.3458 191.434 22.9731C196.498 19.6004 201.695 17.4333 201.695 17.4333V17.4333Z" fill="#2F2E41"/>
<path d="M244.106 96.8983C246.606 98.971 249.7 99.3589 251.016 97.7649C252.332 96.1708 251.373 93.199 248.872 91.1259C247.884 90.284 246.709 89.6914 245.446 89.3976L234.743 80.7495L230.8 85.8676L241.769 93.8497C242.294 95.0382 243.095 96.0836 244.106 96.8983Z" fill="#FFB6B6"/>
<path d="M212.029 49.7343C212.029 49.7343 203.63 44.107 200.879 46.8663C198.129 49.6256 198.785 56.5176 198.785 56.5176L220.812 82.2338L238.277 93.3557L242.96 86.0091L228.277 72.8828L212.029 49.7343V49.7343Z" fill="#3F3D56"/>
<path d="M199.717 37.5447L202.764 48.3964H186.038L191.546 35.0255L199.717 37.5447Z" fill="#FFB6B6"/>
<path opacity="0.1" d="M199.717 37.5447L202.764 48.3964H186.038L191.546 35.0255L199.717 37.5447Z" fill="black"/>
<path d="M163.24 117.666C163.024 120.91 164.52 123.651 166.58 123.788C168.641 123.926 170.486 121.408 170.701 118.163C170.805 116.868 170.598 115.567 170.097 114.368L170.839 100.613L164.388 100.402L164.342 113.985C163.686 115.106 163.308 116.369 163.24 117.666Z" fill="#FFB6B6"/>
<path d="M182.664 64.0151C182.664 64.0151 182.307 53.8988 178.464 53.2778C174.621 52.6568 169.426 57.2217 169.426 57.2217L161.488 90.1609L162.699 110.858L171.387 110.367L173.425 90.7575L182.664 64.0151V64.0151Z" fill="#3F3D56"/>
<path d="M219.921 184.907C219.921 184.907 226.242 196.667 225.79 196.215C225.339 195.763 217.664 198.476 217.664 198.476L213.149 186.717L219.921 184.907Z" fill="#FFB6B6"/>
<path d="M229.25 102.59C229.25 102.59 232.486 115.547 232.159 114.997C231.833 114.448 223.727 115.184 223.727 115.184L222.242 102.673L229.25 102.59Z" fill="#FFB6B6"/>
<path d="M204.119 44.778H188.338L171.16 56.5379L166.194 97.6975L168.903 105.839L173.869 115.337C173.869 115.337 168.903 94.5314 181.093 102.673C193.283 110.814 194.186 112.171 194.186 112.171L210.44 104.03L216.535 70.3332L212.02 51.7887L204.119 44.778Z" fill="#3F3D56"/>
<path d="M172.966 100.411C187.251 102.422 200.153 100.669 210.665 92.4113C210.665 92.4113 218.341 118.193 204.345 120.906C190.348 123.62 174.772 118.956 172.966 114.433C171.16 109.91 172.966 100.411 172.966 100.411Z" fill="#2F2E41"/>
<path d="M199.604 108.553L215.18 145.331L222.404 187.847L212.923 190.109L195.964 150.985L172.966 113.528L199.604 108.553Z" fill="#2F2E41"/>
<path d="M201.636 98.065C201.636 98.065 205.248 70.0222 212.02 68.213C215.322 67.331 218.408 67.4165 220.705 67.7357C223.02 68.0575 224.866 69.8294 225.271 72.1355L231.425 107.196H222.722L219.921 97.6975L212.471 110.73L201.636 98.065V98.065Z" fill="#2F2E41"/>
<path d="M223.759 111.634L232.363 110.73L233.691 115.705C233.691 115.705 247.687 128.369 240.464 129.274C233.24 130.179 226.467 125.203 226.467 125.203L216.53 119.492C216.53 119.492 220.372 109.231 223.081 109.231C225.79 109.231 223.759 111.634 223.759 111.634Z" fill="#2F2E41"/>
<path d="M219.244 196.441L227.849 195.536L229.176 200.512C229.176 200.512 243.172 213.176 235.949 214.081C228.725 214.985 221.953 210.01 221.953 210.01L212.015 204.299C212.015 204.299 212.697 193.586 215.406 193.586C218.115 193.586 219.244 196.441 219.244 196.441Z" fill="#2F2E41"/>
<path d="M195.743 39.9029C201.306 39.9029 205.816 35.3849 205.816 29.8117C205.816 24.2385 201.306 19.7206 195.743 19.7206C190.18 19.7206 185.67 24.2385 185.67 29.8117C185.67 35.3849 190.18 39.9029 195.743 39.9029Z" fill="#FFB6B6"/>
<path d="M199.604 18.5432C199.604 18.5432 201.283 23.2525 198.597 24.2616C195.911 25.2707 192.217 26.6162 192.553 28.298C192.889 29.9799 191.546 35.0255 191.546 35.0255C191.546 35.0255 199.604 40.0711 194.232 45.1167C188.86 50.1623 184.831 48.0831 185.67 52.991C186.509 57.8988 178.115 55.8806 178.115 55.8806C178.115 55.8806 175.093 51.1714 177.444 46.4622C179.794 41.7529 175.765 50.1623 174.758 50.1623C173.75 50.1623 168.714 51.5077 170.728 45.7894C172.743 40.0711 175.765 39.7347 175.765 35.3619C175.765 30.989 177.78 25.6071 178.451 24.9343C179.123 24.2616 182.144 15.5159 188.188 16.1886C194.232 16.8614 199.604 18.5432 199.604 18.5432Z" fill="#2F2E41"/>
<path d="M111.564 184.907C111.564 184.907 105.243 196.667 105.694 196.215C106.146 195.763 113.821 198.476 113.821 198.476L118.336 186.717L111.564 184.907Z" fill="#A0616A"/>
<path d="M158.519 100.411C144.234 102.422 131.332 100.669 120.819 92.4113C120.819 92.4113 113.144 118.193 127.14 120.906C141.136 123.62 156.713 118.956 158.519 114.433C160.324 109.91 158.519 100.411 158.519 100.411Z" fill="#2F2E41"/>
<path d="M131.881 108.553L116.304 145.331L109.081 187.847L118.562 190.109L135.521 150.985L158.518 113.528L131.881 108.553Z" fill="#2F2E41"/>
<path d="M112.241 196.441L103.636 195.536L102.308 200.512C102.308 200.512 88.3123 213.176 95.5361 214.081C102.76 214.985 109.532 210.01 109.532 210.01L119.469 204.299C119.469 204.299 118.788 193.586 116.079 193.586C113.37 193.586 112.241 196.441 112.241 196.441Z" fill="#2F2E41"/>
<path d="M125.836 178.72C125.836 178.72 123.445 191.86 123.735 191.29C124.026 190.72 132.162 190.93 132.162 190.93L132.835 178.348L125.836 178.72Z" fill="#A0616A"/>
<path d="M121.649 99.8108L118.158 139.609L124.379 182.284L134.095 181.505L138.178 139.048L148.519 96.3107L121.649 99.8108Z" fill="#2F2E41"/>
<path d="M130.032 189.482L121.568 191.281L121.837 196.424C121.837 196.424 112.424 212.796 119.574 211.424C126.724 210.052 131.634 203.226 131.634 203.226L139.328 194.723C139.328 194.723 135.38 184.743 132.803 185.58C130.226 186.417 130.032 189.482 130.032 189.482Z" fill="#2F2E41"/>
<path d="M129.79 17.4333C129.79 17.4333 125.485 19.963 126.897 22.4647C128.309 24.9664 130.277 28.3739 128.942 29.4471C127.606 30.5203 125.401 35.252 125.401 35.252C125.401 35.252 115.99 33.9351 116.873 41.259C117.757 48.583 122.178 49.5815 118.389 52.8035C114.599 56.0255 122.327 59.8789 122.327 59.8789C122.327 59.8789 127.663 58.2133 128.88 53.0914C130.097 47.9695 127.795 57.0078 128.567 57.6558C129.339 58.3039 132.337 62.5755 134.459 56.8961C136.58 51.2167 134.479 49.0147 137.282 45.6628C140.086 42.3108 141.991 36.8893 141.908 35.9415C141.824 34.9938 145.114 26.3458 140.05 22.9731C134.986 19.6004 129.79 17.4333 129.79 17.4333V17.4333Z" fill="#2F2E41"/>
<path d="M131.768 37.5447L128.72 48.3964H145.447L139.939 35.0255L131.768 37.5447Z" fill="#A0616A"/>
<path opacity="0.1" d="M131.768 37.5447L128.72 48.3964H145.447L139.939 35.0255L131.768 37.5447Z" fill="black"/>
<path d="M168.245 117.666C168.46 120.91 166.965 123.651 164.904 123.788C162.844 123.926 160.999 121.408 160.783 118.163C160.679 116.868 160.887 115.567 161.388 114.368L160.646 100.613L167.097 100.402L167.143 113.985C167.798 115.106 168.176 116.369 168.245 117.666H168.245Z" fill="#A0616A"/>
<path d="M148.821 64.0151C148.821 64.0151 149.178 53.8988 153.021 53.2778C156.863 52.6568 162.059 57.2217 162.059 57.2217L169.997 90.1609L168.786 110.858L160.098 110.367L158.059 90.7575L148.821 64.0151V64.0151Z" fill="#9F8772"/>
<path d="M127.366 44.778H143.147L160.324 56.5379L165.291 97.6975L162.582 105.839L157.616 115.337C157.616 115.337 162.582 94.5314 150.392 102.673C150.27 102.754 150.149 102.835 150.029 102.915C142.182 108.166 131.828 107.627 124.564 101.592L118.788 96.7929L121.948 80.9623L119.465 51.7887L127.366 44.778V44.778Z" fill="#9F8772"/>
<path d="M87.8783 96.3088C85.3472 98.3432 82.2478 98.6839 80.9557 97.07C79.6637 95.4561 80.6682 92.4992 83.2004 90.4644C84.2008 89.6377 85.3842 89.063 86.6518 88.7885L97.4845 80.3044L101.35 85.4819L90.2607 93.296C89.7181 94.4765 88.9012 95.5096 87.8783 96.3088V96.3088Z" fill="#A0616A"/>
<path d="M120.667 49.6386C120.667 49.6386 129.151 44.1399 131.859 46.9407C134.567 49.7416 133.806 56.6227 133.806 56.6227L111.392 82.0006L93.7598 92.8553L89.1885 85.4382L104.07 72.5371L120.667 49.6386Z" fill="#9F8772"/>
<path d="M135.742 39.9029C141.305 39.9029 145.815 35.3849 145.815 29.8117C145.815 24.2385 141.305 19.7206 135.742 19.7206C130.179 19.7206 125.669 24.2385 125.669 29.8117C125.669 35.3849 130.179 39.9029 135.742 39.9029Z" fill="#A0616A"/>
<path d="M130.727 23.0477C130.727 23.0477 129.243 18.0921 131.717 18.0921C134.19 18.0921 144.083 18.5877 145.073 19.5788C146.062 20.5699 157.769 30.5169 150.843 38.4458C143.918 46.3747 150.843 50.2057 150.843 50.2057C150.843 50.2057 155.955 62.1966 151.008 63.1877C146.062 64.1788 125.771 58.5116 130.727 49.3121C136.106 39.3287 138.608 23.5716 130.727 23.0477L130.727 23.0477Z" fill="#2F2E41"/>
<path d="M295.556 96.7186C295.396 96.2283 294.184 96.4442 294.068 96.0057C293.952 95.5688 295.115 95.2024 296.007 93.9712C296.168 93.7492 297.181 92.35 296.793 91.7615C296.056 90.646 290.929 93.4242 289.698 91.8652C289.428 91.523 289.317 90.9356 288.512 89.8425C288.192 89.4076 287.987 89.1977 287.741 89.2039C287.393 89.2127 287.269 89.649 286.721 90.4394C285.901 91.6248 285.605 91.4759 285.064 92.4472C284.663 93.1681 284.615 93.6288 284.326 93.656C283.916 93.6944 283.747 92.7967 283.247 92.7619C282.736 92.7264 282.225 93.6134 281.972 94.3063C281.496 95.6068 281.791 96.6007 281.856 97.5913C281.927 98.6678 281.76 100.244 280.593 102.266L269.58 119.844C271.945 116.26 278.659 106.489 281.364 102.905C282.145 101.87 282.984 100.831 284.275 100.636C285.519 100.448 287.032 101.064 289.143 101.028C289.39 101.024 290.076 101.003 290.243 100.639C290.381 100.338 290.039 100.076 290.163 99.7924C290.33 99.4126 291.083 99.5755 292.108 99.3232C292.831 99.1453 293.322 98.8514 293.745 98.5986C293.872 98.5224 295.769 97.3711 295.556 96.7186V96.7186Z" fill="#F2F2F2"/>
<path d="M266.712 100.822C266.426 100.76 266.182 101.418 265.934 101.349C265.686 101.28 265.842 100.602 265.496 99.8081C265.434 99.665 265.041 98.7629 264.641 98.7842C263.881 98.8247 263.763 102.147 262.644 102.303C262.399 102.337 262.079 102.222 261.311 102.302C261.006 102.334 260.844 102.374 260.776 102.497C260.68 102.67 260.858 102.858 261.087 103.355C261.431 104.1 261.273 104.203 261.592 104.749C261.83 105.154 262.042 105.311 261.972 105.461C261.872 105.673 261.384 105.497 261.222 105.733C261.057 105.974 261.345 106.481 261.611 106.806C262.111 107.415 262.683 107.557 263.187 107.811C263.735 108.086 264.459 108.623 265.113 109.781L270.547 120.267C269.474 118.07 266.624 111.95 265.648 109.586C265.367 108.903 265.1 108.191 265.377 107.499C265.643 106.834 266.382 106.268 266.973 105.219C267.042 105.097 267.23 104.753 267.1 104.566C266.992 104.411 266.765 104.504 266.662 104.361C266.524 104.169 266.821 103.846 266.994 103.269C267.115 102.863 267.113 102.536 267.111 102.256C267.11 102.171 267.093 100.906 266.712 100.822V100.822V100.822Z" fill="#F2F2F2"/>
<path d="M272.134 103.381L272.304 101.801L272.409 101.702C272.894 101.243 273.197 100.757 273.311 100.257C273.329 100.177 273.343 100.097 273.357 100.015C273.414 99.6897 273.484 99.2859 273.796 98.8665C273.971 98.6328 274.432 98.1047 274.908 98.2892C275.036 98.3374 275.123 98.4208 275.183 98.5093C275.199 98.4939 275.214 98.4786 275.231 98.462C275.436 98.2619 275.58 98.1885 275.719 98.1179C275.825 98.0636 275.935 98.0077 276.121 97.8586C276.203 97.7933 276.268 97.7344 276.323 97.685C276.49 97.5356 276.704 97.3607 276.996 97.43C277.307 97.5149 277.413 97.8113 277.483 98.0076C277.609 98.3576 277.648 98.5983 277.674 98.758C277.683 98.8163 277.694 98.8819 277.702 98.9033C277.77 99.0747 278.622 99.1191 278.943 99.1376C279.664 99.1768 280.287 99.2107 280.437 99.7051C280.545 100.059 280.321 100.445 279.751 100.882C279.574 101.019 279.397 101.113 279.242 101.183C279.337 101.273 279.413 101.395 279.418 101.562C279.428 101.956 279.024 102.259 278.217 102.463C278.017 102.514 277.747 102.582 277.394 102.565C277.228 102.557 277.082 102.531 276.958 102.507C276.94 102.578 276.906 102.652 276.844 102.722C276.665 102.928 276.375 102.98 275.981 102.864C275.546 102.743 275.203 102.578 274.9 102.433C274.635 102.306 274.407 102.198 274.215 102.169C273.859 102.119 273.527 102.339 273.13 102.633L272.134 103.381H272.134V103.381Z" fill="#F2F2F2"/>
<path d="M274.976 94.3826L273.408 94.6178L273.285 94.5415C272.719 94.1882 272.173 94.0177 271.661 94.0344C271.579 94.037 271.498 94.0439 271.415 94.0508C271.087 94.0782 270.68 94.1124 270.196 93.9167C269.926 93.8069 269.299 93.4936 269.356 92.9856C269.37 92.8489 269.429 92.7437 269.499 92.6629C269.48 92.6521 269.461 92.641 269.441 92.6292C269.196 92.4807 269.088 92.3599 268.985 92.2436C268.906 92.1542 268.824 92.0618 268.633 91.9194C268.549 91.8568 268.476 91.8084 268.414 91.7676C268.227 91.6437 268.004 91.481 267.997 91.1799C268 90.8578 268.259 90.6795 268.431 90.5614C268.737 90.3505 268.96 90.2518 269.107 90.1864C269.161 90.1627 269.222 90.1356 269.24 90.1223C269.389 90.0131 269.215 89.1759 269.152 88.8605C269.007 88.152 268.881 87.539 269.321 87.2682C269.635 87.0742 270.064 87.1937 270.631 87.6343C270.808 87.7716 270.944 87.9196 271.051 88.0514C271.113 87.9366 271.212 87.8322 271.372 87.7854C271.75 87.6752 272.145 87.9899 272.547 88.7201C272.647 88.9014 272.781 89.1456 272.854 89.492C272.888 89.6551 272.901 89.8027 272.909 89.9291C272.982 89.929 273.062 89.9432 273.145 89.9848C273.389 90.1066 273.514 90.3744 273.501 90.7854C273.494 91.2373 273.422 91.612 273.359 91.9425C273.304 92.231 273.258 92.4796 273.278 92.6727C273.32 93.0305 273.617 93.2965 274.001 93.6073L274.976 94.3826H274.976V94.3826Z" fill="#F2F2F2"/>
<path d="M275.188 89.6632L275.359 88.0833L275.463 87.9841C275.948 87.5252 276.251 87.039 276.365 86.5386C276.383 86.4591 276.397 86.3786 276.411 86.2966C276.468 85.9718 276.539 85.568 276.85 85.1486C277.025 84.9149 277.486 84.3868 277.962 84.5712C278.091 84.6195 278.177 84.7029 278.238 84.7914C278.253 84.776 278.268 84.7607 278.285 84.7441C278.49 84.5439 278.634 84.4706 278.773 84.4C278.879 84.3457 278.989 84.2898 279.175 84.1407C279.257 84.0753 279.322 84.0165 279.377 83.9671C279.544 83.8177 279.758 83.6427 280.051 83.712C280.361 83.797 280.467 84.0934 280.538 84.2896C280.664 84.6397 280.702 84.8804 280.728 85.04C280.737 85.0983 280.748 85.164 280.756 85.1854C280.824 85.3568 281.676 85.4011 281.997 85.4197C282.718 85.4588 283.342 85.4927 283.492 85.9872C283.599 86.341 283.375 86.7268 282.806 87.1644C282.628 87.3006 282.451 87.3946 282.297 87.4648C282.392 87.5548 282.467 87.6771 282.472 87.8438C282.482 88.2383 282.078 88.5411 281.272 88.7451C281.071 88.7964 280.801 88.8643 280.448 88.8471C280.282 88.8389 280.136 88.8134 280.012 88.7896C279.994 88.8604 279.96 88.9341 279.899 89.004C279.719 89.21 279.429 89.2624 279.035 89.1463C278.601 89.0249 278.257 88.8599 277.954 88.7148C277.689 88.5885 277.461 88.4805 277.27 88.451C276.913 88.4011 276.581 88.6214 276.184 88.9146L275.188 89.6632H275.188V89.6632Z" fill="#F2F2F2"/>
<path d="M270.101 119.934L269.824 119.659L269.829 119.269L269.824 119.659L269.438 119.618C269.44 119.582 269.437 119.497 269.434 119.364C269.42 118.638 269.374 116.426 269.681 113.027C269.896 110.655 270.254 108.247 270.747 105.868C271.241 103.486 271.753 101.714 272.165 100.29C272.475 99.2152 272.789 98.1961 273.095 97.2035C273.911 94.5515 274.682 92.0464 275.16 89.189C275.267 88.5511 275.489 87.2234 275.034 85.6562C274.771 84.7472 274.319 83.8917 273.692 83.1141L274.299 82.6231C274.991 83.4824 275.49 84.4299 275.783 85.4391C276.287 87.1767 276.045 88.6235 275.929 89.3186C275.443 92.2265 274.664 94.7557 273.84 97.4332C273.535 98.4223 273.223 99.4369 272.913 100.507C272.506 101.918 271.998 103.675 271.511 106.026C271.023 108.376 270.669 110.755 270.457 113.097C270.154 116.453 270.199 118.632 270.214 119.348C270.222 119.73 270.223 119.81 270.101 119.934V119.934Z" fill="#F2F2F2"/>
<path d="M272.028 84.0132C271.997 84.0063 271.965 83.9985 271.934 83.9891C271.294 83.8094 270.78 83.2868 270.407 82.4363C270.233 82.0363 270.192 81.6154 270.11 80.7759C270.097 80.6465 270.04 79.9916 270.11 79.1236C270.155 78.5564 270.216 78.3286 270.37 78.1497C270.541 77.9505 270.772 77.8363 271.015 77.779C271.022 77.704 271.046 77.6305 271.095 77.5609C271.296 77.2721 271.631 77.3908 271.813 77.4526C271.905 77.4856 272.019 77.5275 272.147 77.5492C272.349 77.5841 272.47 77.5486 272.653 77.4956C272.827 77.4448 273.045 77.3816 273.345 77.387C273.937 77.3952 274.376 77.6619 274.52 77.7497C275.282 78.2081 275.545 78.9396 275.849 79.7865C275.91 79.9563 276.11 80.5699 276.157 81.36C276.191 81.9301 276.116 82.1634 276.031 82.3302C275.856 82.6733 275.589 82.8323 274.925 83.1668C274.232 83.5174 273.884 83.6928 273.599 83.7829C272.935 83.9917 272.518 84.1228 272.028 84.0132V84.0132Z" fill="#F2F2F2"/>
<path d="M75.4706 92.5831L74.9612 76.4843C74.9529 76.223 75.0554 75.9686 75.2425 75.7863C75.4297 75.604 75.6866 75.5083 75.9473 75.524L88.6991 76.2902C88.9568 76.3055 89.1985 76.4289 89.3623 76.6286C89.5262 76.8283 89.6004 77.0896 89.5659 77.3457L87.4087 93.3465C87.3434 93.8307 86.9112 94.1845 86.4248 94.1522L76.3395 93.4841C76.2372 93.4773 76.1397 93.4544 76.0495 93.4179C75.7164 93.2829 75.4826 92.9622 75.4706 92.5831Z" fill="#9F8772"/>
<path d="M74.9769 74.9783C75.1554 74.9595 75.3943 74.9364 75.6812 74.9122C75.6045 74.7691 75.5731 74.5999 75.6059 74.4263L75.8337 73.2204C75.8928 72.9074 76.1445 72.6675 76.4596 72.6253C78.3372 72.3738 84.7953 71.6914 88.8618 73.5396C89.1162 73.6553 89.2799 73.9092 89.288 74.1889L89.3252 75.4754C89.3298 75.6345 89.2837 75.7819 89.2028 75.9041C89.5409 75.9952 89.8778 76.0915 90.2121 76.1965C90.4216 76.2623 90.5715 76.4475 90.5967 76.666L90.6598 77.2139C90.6999 77.5617 90.4154 77.8606 90.0668 77.837L74.8217 76.8056C74.4748 76.7821 74.2331 76.4505 74.3166 76.1123L74.4923 75.4009C74.5489 75.1717 74.7426 75.003 74.9769 74.9783V74.9783Z" fill="#3F3D56"/>
<path d="M37.0941 46.9004L36.5847 30.8017C36.5764 30.5404 36.6789 30.286 36.8661 30.1037C37.0533 29.9213 37.3101 29.8257 37.5708 29.8414L50.3227 30.6075C50.5803 30.6229 50.822 30.7463 50.9858 30.946C51.1498 31.1456 51.224 31.407 51.1894 31.6631L49.0322 47.6639C48.967 48.148 48.5348 48.5019 48.0483 48.4695L37.963 47.8014C37.8607 47.7946 37.7633 47.7718 37.673 47.7352C37.34 47.6002 37.1061 47.2795 37.0941 46.9004V46.9004Z" fill="#9F8772"/>
<path d="M36.6005 29.2957C36.7789 29.2768 37.0179 29.2537 37.3048 29.2296C37.2281 29.0865 37.1967 28.9173 37.2295 28.7436L37.4572 27.5378C37.5163 27.2248 37.768 26.9849 38.0831 26.9426C39.9607 26.6911 46.4188 26.0087 50.4853 27.857C50.7398 27.9726 50.9034 28.2265 50.9115 28.5063L50.9487 29.7928C50.9533 29.9518 50.9072 30.0992 50.8263 30.2215C51.1644 30.3125 51.5014 30.4088 51.8356 30.5138C52.0451 30.5796 52.195 30.7649 52.2202 30.9833L52.2834 31.5313C52.3235 31.879 52.0389 32.178 51.6903 32.1544L36.4452 31.123C36.0983 31.0995 35.8567 30.7678 35.9402 30.4297L36.1158 29.7183C36.1724 29.4891 36.3661 29.3204 36.6005 29.2957V29.2957Z" fill="#3F3D56"/>
<path d="M237.103 96.6538L236.594 80.5551C236.585 80.2938 236.688 80.0393 236.875 79.8571C237.062 79.6747 237.319 79.5791 237.58 79.5947L250.332 80.3609C250.589 80.3763 250.831 80.4997 250.995 80.6994C251.159 80.899 251.233 81.1604 251.198 81.4165L249.041 97.4173C248.976 97.9014 248.544 98.2553 248.057 98.2229L237.972 97.5548C237.87 97.548 237.772 97.5252 237.682 97.4886C237.349 97.3536 237.115 97.0329 237.103 96.6538Z" fill="#9F8772"/>
<path d="M236.61 79.0491C236.788 79.0302 237.027 79.0071 237.314 78.983C237.237 78.8399 237.206 78.6707 237.239 78.497L237.466 77.2911C237.525 76.9782 237.777 76.7383 238.092 76.696C239.97 76.4445 246.428 75.7621 250.494 77.6103C250.749 77.726 250.912 77.9799 250.921 78.2597L250.958 79.5461C250.962 79.7052 250.916 79.8526 250.835 79.9749C251.173 80.0659 251.51 80.1622 251.845 80.2672C252.054 80.333 252.204 80.5182 252.229 80.7367L252.292 81.2847C252.332 81.6324 252.048 81.9314 251.699 81.9078L236.454 80.8763C236.107 80.8529 235.866 80.5212 235.949 80.1831L236.125 79.4716C236.181 79.2425 236.375 79.0738 236.61 79.049V79.0491Z" fill="#3F3D56"/>
</g>
<defs>
<clipPath id="clip0_693_680">
<rect width="298" height="216" fill="white"/>
</clipPath>
</defs>
</svg>
