<svg width="172" height="185" viewBox="0 0 172 185" fill="none" xmlns="http://www.w3.org/2000/svg">
<g clip-path="url(#clip0_690_657)">
<path d="M64.6815 160.216L128.294 157.404L163.833 185H44.0747L64.6815 160.216Z" fill="#F2F2F2"/>
<path d="M115.52 27.1832C112.923 25.3552 109.351 25.797 107.285 28.2017L96.6192 40.6129L72.7251 37.4399L68.302 36.5611C67.3438 35.7199 66.1969 35.1188 64.957 34.8086C61.8667 33.9897 58.9365 34.9105 58.4124 36.8647C57.8885 38.8188 59.9687 41.0662 63.0602 41.8849C64.2907 42.2286 65.586 42.2747 66.8381 42.0191L68.6403 42.4724L95.7263 52.3519L115.723 37.0082C118.996 34.4974 118.893 29.5581 115.52 27.1832V27.1832V27.1832Z" fill="#FFB6B6"/>
<path d="M110.446 19.7148L106.546 12.8244L100.233 18.4087L101.851 27.6296L110.446 19.7148Z" fill="#FFB6B6"/>
<path d="M96.016 21.6145C101.422 21.6145 105.804 17.2603 105.804 11.889C105.804 6.51779 101.422 2.16354 96.016 2.16354C90.6101 2.16354 86.2278 6.51779 86.2278 11.889C86.2278 17.2603 90.6101 21.6145 96.016 21.6145Z" fill="#FFB6B6"/>
<path d="M98.3918 15.0208L92.7375 14.0363L91.9297 10.8441C91.9297 10.8441 86.9011 17.874 84.991 11.5182C83.0809 5.16236 91.9599 -0.0677762 94.5974 0.0150184C97.235 0.097813 104.973 -0.813509 106.341 4.31857C107.71 9.45065 107.479 15.0572 107.479 15.0572L104.409 15.2756C104.409 15.2756 101.074 10.554 100.146 11.5217C99.2172 12.4894 98.3918 15.0208 98.3918 15.0208H98.3918Z" fill="#2F2E41"/>
<path d="M85.926 99.9734L83.3674 123.277L94.5961 157.145C95.0641 158.557 95.1975 160.056 94.986 161.527C94.6441 163.905 93.4218 166.07 91.5582 167.6L85.2223 172.801C84.8678 173.092 84.703 173.552 84.7931 174C84.9414 174.737 85.7087 175.174 86.4234 174.93L94.4845 172.177C97.288 171.22 100.232 170.731 103.197 170.731H104.685C105.865 170.731 106.821 169.781 106.821 168.608C106.821 168.331 106.767 168.057 106.66 167.8L103.836 160.986L96.1604 124.972L98.2926 112.684L85.926 99.9734V99.9734V99.9734Z" fill="#FFB6B6"/>
<path d="M103.41 110.142L105.542 124.124L111.086 158.867L108.953 166.494L100.097 173.664C98.9448 174.597 99.2816 176.425 100.691 176.892C101.072 177.018 101.484 177.02 101.866 176.898L114.497 172.849L117.924 171.633C119.449 171.092 120.467 169.657 120.467 168.048C120.467 167.581 120.38 167.118 120.212 166.681L118.335 161.833L116.416 124.336L116.629 110.566L103.41 110.142V110.142Z" fill="#FFB6B6"/>
<path d="M92.3462 75.0291L90.0406 50.1575C89.5836 45.2267 90.7808 40.1953 93.4119 35.9893L99.2287 26.7177L110.454 18.1386L115.385 22.3702C118.268 24.8441 119.636 28.6942 118.954 32.4185L114.072 59.097L114.938 69.4171L92.3462 75.0291H92.3462Z" fill="#9F8772"/>
<path d="M119.621 159.291H110.693L110.662 159.116L101.643 108.473L96.5938 123.924L103.019 154.996L94.5421 157.213L81.57 126.127C80.5223 123.616 80.312 120.782 80.9785 118.146L92.0988 74.1556L114.766 69.0253L114.847 69.0927C124.942 77.4851 117.87 88.9374 117.271 89.8642L119.621 159.291H119.621H119.621Z" fill="#2F2E41"/>
<path d="M171.289 90.5673C170.632 92.3384 169.558 93.8848 168.189 95.105C166.82 96.3296 165.157 97.2235 163.315 97.6855C151.196 100.723 122.134 105.634 89.8961 93.9612C84.8984 92.1476 79.8664 90.4148 74.7834 88.8472C66.0416 86.1482 58.2677 83.2585 51.3637 80.2885C48.1911 78.9241 45.206 77.5471 42.3958 76.1574C38.6049 74.2888 35.1252 72.4076 31.944 70.5391C28.814 68.7088 25.9697 66.8911 23.3856 65.1115C5.29198 52.6548 0 42.1387 0 42.1387C0 42.1387 10.3794 37.0502 32.6391 36.1985C35.8331 36.0756 39.2701 36.0417 42.9587 36.118C46.7156 36.1985 50.7283 36.3977 55.0054 36.7492C58.1823 37.0035 61.5 37.3467 64.9669 37.7789C76.3782 39.2068 89.3843 41.6472 104.049 45.5283C153.925 58.7223 167.443 73.95 171.042 82.0722C172.232 84.7627 172.313 87.8091 171.289 90.5673Z" fill="#E6E6E6"/>
<path d="M110.021 23.6013C106.839 23.5606 104.151 25.9381 103.823 29.0833L102.13 45.3164L80.6448 56.1776L76.501 57.9481C75.2316 57.7959 73.944 57.9477 72.7459 58.3915C69.7338 59.4598 67.8471 61.8702 68.5318 63.7748C69.2166 65.6791 72.2131 66.3565 75.2261 65.2873C76.4355 64.8764 77.5284 64.184 78.4133 63.2675L80.1561 62.6245L105.194 56.2278C107.003 55.7656 108.446 54.4125 109.015 52.6448L115.801 31.5759C117.061 27.6633 114.155 23.6543 110.021 23.6013L110.021 23.6013V23.6013Z" fill="#FFB6B6"/>
<path d="M42.9587 36.118L31.9439 70.5391C28.814 68.7088 25.9696 66.8911 23.3855 65.1115L32.639 36.1985C35.833 36.0756 39.2701 36.0417 42.9587 36.118Z" fill="#3F3D56"/>
<path d="M64.9669 37.7789L51.3636 80.2884C48.191 78.924 45.206 77.547 42.3958 76.1574L55.0054 36.7492C58.1823 37.0035 61.4999 37.3467 64.9669 37.7789H64.9669Z" fill="#3F3D56"/>
<path d="M113.763 50.1074L99.4434 47.096L103.77 26.7851C104.124 25.1242 105.108 23.6996 106.54 22.7736C107.972 21.848 109.681 21.5327 111.353 21.8832L113.156 22.2626C116.607 22.9883 118.82 26.368 118.09 29.7965L113.763 50.1074L113.763 50.1074V50.1074Z" fill="#9F8772"/>
</g>
<defs>
<clipPath id="clip0_690_657">
<rect width="172" height="185" fill="white"/>
</clipPath>
</defs>
</svg>
