<svg width="72" height="72" viewBox="0 0 72 72" fill="none" xmlns="http://www.w3.org/2000/svg">
<g id="24x24/On Light/Insights">
<path id="Shape" d="M45 14.25C48.7279 14.25 51.75 17.2721 51.75 21V48.0837H56.25V21C56.25 14.7868 51.2132 9.75 45 9.75H15C12 9.75 12 14.25 15 14.25C17.7574 14.25 18.75 15.2426 18.75 18C18.75 21.6054 18.75 21.6054 18.75 24.8584V34.5C18.75 42 18.75 42 18.75 51C18.75 57.2132 23.7868 62.25 30 62.25H54V57.75H30C26.2721 57.75 23.25 54.7279 23.25 51C23.25 42 23.25 42 23.25 34.5V18C23.25 16.5812 23.0297 15.3261 22.6045 14.25H45Z" fill="#141124"/>
<path id="Shape_2" fill-rule="evenodd" clip-rule="evenodd" d="M15 9.75C19.5563 9.75 23.25 13.4437 23.25 18V24C23.25 25.2426 22.2426 26.25 21 26.25H9C7.75736 26.25 6.75 25.2426 6.75 24V18C6.75 13.4437 10.4437 9.75 15 9.75ZM18.75 21.75V18C18.75 15.9289 17.0711 14.25 15 14.25C12.9289 14.25 11.25 15.9289 11.25 18V21.75H18.75ZM30 62.25H54C60.2132 62.25 65.25 57.2132 65.25 51V48C65.25 46.7574 64.2426 45.75 63 45.75H39C37.7574 45.75 36.75 46.7574 36.75 48C36.75 54.875 34.5938 57.75 30 57.75C27 57.75 27 62.25 30 62.25ZM38.9637 57.75H54C57.7279 57.75 60.75 54.7279 60.75 51V50.25H41.166C40.9289 53.3055 40.1903 55.8234 38.9637 57.75ZM38.9637 57.75C37.094 60.6868 34.0903 62.25 30 62.25V57.75H38.9637Z" fill="#141124"/>
</g>
</svg>
