<svg width="72" height="72" viewBox="0 0 72 72" fill="none" xmlns="http://www.w3.org/2000/svg">
<g id="24x24/On Light/Media">
<path id="Shape" fill-rule="evenodd" clip-rule="evenodd" d="M15 14.25H42C43.2426 14.25 44.25 13.2426 44.25 12C44.25 10.7574 43.2426 9.75 42 9.75H15C13.7574 9.75 12.75 10.7574 12.75 12C12.75 13.2426 13.7574 14.25 15 14.25ZM42 21.75H15C10.4437 21.75 6.75 25.4437 6.75 30V54C6.75 58.5564 10.4437 62.25 15 62.25H42C46.4489 62.25 50.0753 58.7285 50.2439 54.3209L58.0502 57.4434C58.6703 57.6915 59.3321 57.8189 60 57.8189C62.8995 57.8189 65.25 55.4684 65.25 52.5689V31.4311C65.25 30.7632 65.1226 30.1014 64.8745 29.4813C63.7977 26.7892 60.7423 25.4797 58.0502 26.5566L50.2439 29.6791C50.0753 25.2715 46.4489 21.75 42 21.75ZM50.25 34.5233V49.4767L59.7215 53.2653C59.8101 53.3007 59.9046 53.3189 60 53.3189C60.4142 53.3189 60.75 52.9831 60.75 52.5689V31.4311C60.75 31.3357 60.7318 31.2411 60.6964 31.1526C60.5425 30.768 60.106 30.5809 59.7215 30.7347L50.25 34.5233ZM45.75 33V30C45.75 27.9289 44.0711 26.25 42 26.25H15C12.9289 26.25 11.25 27.9289 11.25 30V54C11.25 56.0711 12.9289 57.75 15 57.75H42C44.0711 57.75 45.75 56.0711 45.75 54V51V33Z" fill="#141124"/>
</g>
</svg>
