<svg width="72" height="72" viewBox="0 0 72 72" fill="none" xmlns="http://www.w3.org/2000/svg">
<g id="24x24/On Light/Pattern">
<path id="view-box" opacity="0.01" fill-rule="evenodd" clip-rule="evenodd" d="M0 0H72V72H0V0Z" fill="#141124"/>
<path id="Shape" fill-rule="evenodd" clip-rule="evenodd" d="M54 26.25C58.5564 26.25 62.25 22.5563 62.25 18C62.25 13.4437 58.5564 9.75 54 9.75C49.4436 9.75 45.75 13.4437 45.75 18C45.75 22.5563 49.4436 26.25 54 26.25ZM54 21.75C51.9289 21.75 50.25 20.0711 50.25 18C50.25 15.9289 51.9289 14.25 54 14.25C56.0711 14.25 57.75 15.9289 57.75 18C57.75 20.0711 56.0711 21.75 54 21.75ZM44.25 36C44.25 40.5564 40.5564 44.25 36 44.25C31.4437 44.25 27.75 40.5564 27.75 36C27.75 31.4437 31.4437 27.75 36 27.75C40.5564 27.75 44.25 31.4437 44.25 36ZM32.25 36C32.25 38.0711 33.9289 39.75 36 39.75C38.0711 39.75 39.75 38.0711 39.75 36C39.75 33.9289 38.0711 32.25 36 32.25C33.9289 32.25 32.25 33.9289 32.25 36ZM26.25 54C26.25 58.5564 22.5563 62.25 18 62.25C13.4437 62.25 9.75 58.5564 9.75 54C9.75 49.4436 13.4437 45.75 18 45.75C22.5563 45.75 26.25 49.4436 26.25 54ZM14.25 54C14.25 56.0711 15.9289 57.75 18 57.75C20.0711 57.75 21.75 56.0711 21.75 54C21.75 51.9289 20.0711 50.25 18 50.25C15.9289 50.25 14.25 51.9289 14.25 54ZM26.25 18C26.25 22.5563 22.5563 26.25 18 26.25C13.4437 26.25 9.75 22.5563 9.75 18C9.75 13.4437 13.4437 9.75 18 9.75C22.5563 9.75 26.25 13.4437 26.25 18ZM14.25 18C14.25 20.0711 15.9289 21.75 18 21.75C20.0711 21.75 21.75 20.0711 21.75 18C21.75 15.9289 20.0711 14.25 18 14.25C15.9289 14.25 14.25 15.9289 14.25 18ZM54 62.25C58.5564 62.25 62.25 58.5564 62.25 54C62.25 49.4436 58.5564 45.75 54 45.75C49.4436 45.75 45.75 49.4436 45.75 54C45.75 58.5564 49.4436 62.25 54 62.25ZM54 57.75C51.9289 57.75 50.25 56.0711 50.25 54C50.25 51.9289 51.9289 50.25 54 50.25C56.0711 50.25 57.75 51.9289 57.75 54C57.75 56.0711 56.0711 57.75 54 57.75Z" fill="#141124"/>
</g>
</svg>
