<svg width="108" height="108" viewBox="0 0 108 108" fill="none" xmlns="http://www.w3.org/2000/svg">
<g id="24x24/On Light/Queue-Add">
<path id="Shape" fill-rule="evenodd" clip-rule="evenodd" d="M40.5 10.125H85.5C92.3345 10.125 97.875 15.6655 97.875 22.5V67.5C97.875 74.3345 92.3345 79.875 85.5 79.875H79.875V86.1429C79.875 92.6223 74.6223 97.875 68.1429 97.875H27C17.6802 97.875 10.125 90.3198 10.125 81V39.8571C10.125 33.3777 15.3777 28.125 21.8571 28.125H28.125V22.5C28.125 15.6655 33.6655 10.125 40.5 10.125ZM28.125 34.875H21.8571C19.1056 34.875 16.875 37.1056 16.875 39.8571V81C16.875 86.5919 21.4081 91.125 27 91.125H68.1429C70.8944 91.125 73.125 88.8944 73.125 86.1429V79.875H40.5C33.6655 79.875 28.125 74.3345 28.125 67.5V34.875ZM40.5 16.875C37.3934 16.875 34.875 19.3934 34.875 22.5V67.5C34.875 70.6066 37.3934 73.125 40.5 73.125H85.5C88.6066 73.125 91.125 70.6066 91.125 67.5V22.5C91.125 19.3934 88.6066 16.875 85.5 16.875H40.5ZM59.625 56.25V48.375H51.75C49.886 48.375 48.375 46.864 48.375 45C48.375 43.136 49.886 41.625 51.75 41.625H59.625V33.75C59.625 31.886 61.136 30.375 63 30.375C64.864 30.375 66.375 31.886 66.375 33.75V41.625H74.25C76.114 41.625 77.625 43.136 77.625 45C77.625 46.864 76.114 48.375 74.25 48.375H66.375V56.25C66.375 58.114 64.864 59.625 63 59.625C61.136 59.625 59.625 58.114 59.625 56.25Z" fill="#383838"/>
</g>
</svg>
