<svg width="24" height="24" viewBox="0 0 24 24" fill="none" xmlns="http://www.w3.org/2000/svg">
<path opacity="0.01" fill-rule="evenodd" clip-rule="evenodd" d="M0 0H24V24H0V0Z" fill="#141124"/>
<path fill-rule="evenodd" clip-rule="evenodd" d="M13.9892 2.51489C14.18 2.29874 14.4779 2.21112 14.7553 2.2895C15.5154 2.50421 16.2454 2.80743 16.9319 3.19192C17.1833 3.33274 17.3319 3.60521 17.314 3.89286L17.1849 5.96773C17.1822 6.01083 17.1981 6.05301 17.2287 6.08355L17.9277 6.78261C17.9583 6.81315 18.0004 6.8291 18.0435 6.82642L20.1184 6.6973C20.4061 6.6794 20.6785 6.82792 20.8194 7.07938C21.2038 7.76591 21.5071 8.49586 21.7218 9.25594C21.8001 9.53341 21.7125 9.83125 21.4964 10.0221L19.9373 11.3985C19.905 11.427 19.8864 11.4681 19.8864 11.5113V12.4999C19.8864 12.5431 19.905 12.5842 19.9373 12.6128L21.4964 13.9892C21.7125 14.18 21.8001 14.4779 21.7218 14.7553C21.5071 15.5154 21.2038 16.2454 20.8194 16.9319C20.6785 17.1833 20.4061 17.3319 20.1184 17.314L18.0435 17.1849C18.0004 17.1822 17.9583 17.1981 17.9277 17.2287L17.2287 17.9277C17.1981 17.9583 17.1822 18.0004 17.1849 18.0435L17.314 20.1184C17.3319 20.4061 17.1833 20.6785 16.9319 20.8194C16.247 21.2029 15.519 21.5056 14.7609 21.7202C14.483 21.7989 14.1845 21.7109 13.9937 21.4941L12.6234 19.9375C12.5948 19.905 12.5537 19.8864 12.5104 19.8864H11.5113C11.4681 19.8864 11.427 19.905 11.3985 19.9373L10.0221 21.4964C9.83125 21.7125 9.53341 21.8001 9.25594 21.7218C8.49813 21.5077 7.77026 21.2056 7.0855 20.8228C6.83337 20.6818 6.68461 20.4086 6.70305 20.1203L6.83533 18.0527C6.83809 18.0095 6.82214 17.9673 6.79154 17.9367L6.08355 17.2287C6.05301 17.1981 6.01083 17.1822 5.96773 17.1849L3.89286 17.314C3.60521 17.3319 3.33274 17.1833 3.19192 16.9319C2.80743 16.2454 2.50421 15.5154 2.2895 14.7553C2.21112 14.4779 2.29874 14.18 2.51489 13.9892L4.07393 12.6128C4.10631 12.5842 4.12485 12.5431 4.12485 12.4999V11.5113C4.12485 11.4681 4.10631 11.427 4.07393 11.3985L2.51489 10.0221C2.29874 9.83125 2.21112 9.53341 2.2895 9.25594C2.50421 8.49586 2.80743 7.76591 3.19192 7.07938C3.33274 6.82792 3.60521 6.6794 3.89286 6.6973L5.96773 6.82642C6.01083 6.8291 6.05301 6.81315 6.08355 6.78261L6.78261 6.08355C6.81315 6.05301 6.8291 6.01083 6.82642 5.96773L6.6973 3.89286C6.6794 3.60521 6.82792 3.33274 7.07938 3.19192C7.76591 2.80743 8.49586 2.50421 9.25594 2.2895C9.53341 2.21112 9.83125 2.29874 10.0221 2.51489L11.3985 4.07393C11.427 4.10631 11.4681 4.12485 11.5113 4.12485H12.4999C12.5431 4.12485 12.5842 4.10631 12.6128 4.07393L13.9892 2.51489ZM13.7373 5.06667C13.424 5.42157 12.9734 5.62485 12.4999 5.62485H11.5113C11.0379 5.62485 10.5873 5.42157 10.274 5.06667L9.21912 3.87183C8.87893 3.98834 8.54683 4.12614 8.22456 4.28427L8.32352 5.87457C8.35293 6.34707 8.17803 6.80945 7.84327 7.14421L7.14421 7.84327C6.80945 8.17803 6.34707 8.35293 5.87457 8.32352L4.28427 8.22456C4.12614 8.54683 3.98834 8.87893 3.87183 9.21912L5.06667 10.274C5.42157 10.5873 5.62485 11.0379 5.62485 11.5113V12.4999C5.62485 12.9734 5.42157 13.424 5.06667 13.7373L3.87183 14.7922C3.98834 15.1323 4.12614 15.4644 4.28427 15.7867L5.87457 15.6877C6.34707 15.6583 6.80945 15.8332 7.14421 16.168L7.8522 16.876C8.18766 17.2115 8.36256 17.675 8.33227 18.1485L8.23108 19.7302C8.55131 19.887 8.88122 20.0237 9.21912 20.1394L10.274 18.9446C10.5873 18.5897 11.0379 18.3864 11.5113 18.3864H12.5104C12.9847 18.3864 13.436 18.5904 13.7493 18.9464L14.7978 20.1375C15.136 20.0214 15.4662 19.8843 15.7867 19.727L15.6877 18.1367C15.6583 17.6642 15.8332 17.2018 16.168 16.8671L16.8671 16.168C17.2018 15.8332 17.6642 15.6583 18.1367 15.6877L19.727 15.7867C19.8851 15.4644 20.0229 15.1323 20.1394 14.7922L18.9446 13.7373C18.5897 13.424 18.3864 12.9734 18.3864 12.4999V11.5113C18.3864 11.0379 18.5897 10.5873 18.9446 10.274L20.1394 9.21912C20.0229 8.87893 19.8851 8.54683 19.727 8.22456L18.1367 8.32352C17.6642 8.35293 17.2018 8.17803 16.8671 7.84327L16.168 7.14421C15.8332 6.80945 15.6583 6.34707 15.6877 5.87457L15.7867 4.28427C15.4644 4.12614 15.1323 3.98834 14.7922 3.87183L13.7373 5.06667ZM12 16.75C14.6234 16.75 16.75 14.6234 16.75 12C16.75 9.37666 14.6234 7.25001 12 7.25001C9.37666 7.25001 7.25001 9.37666 7.25001 12C7.25001 14.6234 9.37666 16.75 12 16.75ZM12 15.25C10.2051 15.25 8.75001 13.7949 8.75001 12C8.75001 10.2051 10.2051 8.75001 12 8.75001C13.7949 8.75001 15.25 10.2051 15.25 12C15.25 13.7949 13.7949 15.25 12 15.25Z" fill="#141124"/>
</svg>
